<svg xmlns="http://www.w3.org/2000/svg" xmlns:xlink="http://www.w3.org/1999/xlink" viewBox="0 0 500.719 350.5"><defs><style>.a,.d,.f,.g,.j,.t{fill:#fff;}.a,.b,.h,.k,.o,.t,.x,.y{stroke:#263238;}.a,.b,.e,.h,.k,.o,.t,.x,.y{stroke-linecap:round;stroke-linejoin:round;}.b,.c{fill:#76c6c8;}.d{opacity:0.8;}.e,.k,.o,.x,.y{fill:none;}.e{stroke:#fff;}.g{opacity:0.48;}.h,.p{fill:#263238;}.i{clip-path:url(#a);}.j{opacity:0.5;}.l{clip-path:url(#b);}.m{opacity:0.2;}.n{clip-path:url(#c);}.o{stroke-width:2px;}.q{clip-path:url(#d);}.r{clip-path:url(#e);}.s{clip-path:url(#f);}.t{stroke-width:1.004px;}.u{clip-path:url(#g);}.v{clip-path:url(#h);}.w{clip-path:url(#i);}.x{stroke-width:4px;}.y{stroke-width:3px;}</style><clipPath id="a"><path class="a" d="M314.438,385.9s-8.818-9.336-14-17.877-11.938-17.636-14.01-19.19a40.356,40.356,0,0,0-10.625-5.18c-4.156-1.3-8.047-6.481-9.083-4.927a4.457,4.457,0,0,0,1.3,5.445c1.554,1.036,6.216,3.891,6.216,3.891s-7.517,1.289-10.107,1.289-10.107-7.782-11.408-5.963c-.494.687-.277,1.759.289,2.915-.626-.313-1.072-.277-1.072.458,0,2.59,4.927,8.818,8.3,11.155a11.237,11.237,0,0,0,2,1.132,13.4,13.4,0,0,0,3.445,4.313,14.155,14.155,0,0,0,5.553,2.108c6.987,2.59,16.227,5.662,16.227,5.662l10.119,20.744h20.226Z" transform="translate(-251.94 -338.441)"/></clipPath><clipPath id="b"><path class="b" d="M387.619,290.585s25.671,23.864,26.189,26.5-15.552,87.121-15.552,87.121H293.45s19.19-26.707,19.19-30.333,11.143-56.27,11.408-59.125,27.478-14,35.261-17.889S374.392,288.26,387.619,290.585Z" transform="translate(-293.45 -289.967)"/></clipPath><clipPath id="c"><path class="a" d="M337.073,235.576s-5.373,7.361-6.734,10.9-2.18,33.237,0,38.959,7.348,9.806,13.613,11.444c0,0,3,17.166.819,23.431s-7.626,18.251-5.445,16.865,34.393-29.02,36.513-33.731c1.084-2.409-.277-19.889-.277-19.889s3.277-15.263,2.723-19.347-4.626-7.361-7.083-5.457a29.164,29.164,0,0,0-4.361,4.361s-5.168-2.988-2.723-7.348,9.264-8.18,6.818-13.9-6.276-7.361-12.047-5.722S340.614,240.479,337.073,235.576Z" transform="translate(-328.993 -235.54)"/></clipPath><clipPath id="d"><path class="b" d="M391.041,309.42s-9.637,3.891-11.155,7.228-22.033,78.568-22.033,78.568-.518,4.156,4.662,4.409,36.562,0,36.562,0,2.59-52.632,2.337-61.2-.518-24.093-1.819-25.406" transform="translate(-357.838 -309.42)"/></clipPath><clipPath id="e"><path class="a" d="M368.535,363.976s-26.732-22.889-31.2-30.261-5.541-11.926-8.734-15.046-7.866-5.71-11.215-8.276-3.253,2.409-2.168,4.072a24.553,24.553,0,0,0,4.686,4.18l1.867,3.084s-12.047-2.855-14.456-2.7-12.962-.325-14.637,2.084,2.241,2.229,3.349,2.566,4.481,0,6.915.349,8.5,1.9,8.5,1.9-16.13,2.614-18.178,2.976-2.9,2.891-1.4,3.939,6.445.687,6.445.687,7.674,4.7,9.348,5.192,5.517,1.385,5.517,1.385,11.384,4.819,15.167,6.782,11.914,13.685,16.106,19.528,10.083,13.745,13.974,17.793,6.505,7,6.505,7l9.252-23.5Z" transform="translate(-291.106 -309.671)"/></clipPath><clipPath id="f"><path class="b" d="M149.112,283.218s-44.284,16.5-51.222,21.13S84,317.081,84,328.079s6.373,74.1,6.373,74.1H238.257s-18.516-65.124-24.6-78.725c-3.4-7.6-6.806-16.046-12.553-22.25-7.517-8.107-18.552-13.022-29.081-15.89a61.308,61.308,0,0,0-11.914-1.759C157.027,283.314,152.076,282.121,149.112,283.218Z" transform="translate(-84 -282.761)"/></clipPath><clipPath id="g"><path class="a" d="M131.81,274.348s2.024,15.661,1.735,17.371,0,12.733,8.1,17.359,16.793,2.614,20.841-3.469.578-31.839.578-31.839S145.122,282.745,131.81,274.348Z" transform="translate(-131.81 -273.77)"/></clipPath><clipPath id="h"><rect class="a" width="48.331" height="74.388" rx="15.95" transform="translate(0 5.605) rotate(-6.66)"/></clipPath><clipPath id="i"><path class="a" d="M214.782,377.287c-7.228-1.735-17.07-1.2-22.889-1.446s-42.838-3.482-51.512-6.023S118.1,364.9,118.1,364.9l-3.771-24.322c-16.13-6.361-25.479.3-28.755,3.457,1.867,21.407,4.445,46.91,4.445,46.91H220.059l3.7-.289S222.022,378.974,214.782,377.287Z" transform="translate(-85.57 -337.926)"/></clipPath></defs><g transform="translate(-44.61 -98.243)"><g transform="translate(49.302 98.243)"><path class="c" d="M501.568,444.521c3.4-12.721,14.456-55.415,22.009-98.722,8.975-51.656,16.865-122.876-19.082-152.667s-83.122,5.734-107.769-5.734-25.816-68.883-92.036-86.1-103.276,42.477-132.513,74.617S110.522,186.24,67.841,220.682c-42.163,34.056-6.409,188.277,24.792,223.839Z" transform="translate(-48.59 -98.243)"/><path class="d" d="M501.568,444.521c3.4-12.721,14.456-55.415,22.009-98.722,8.975-51.656,16.865-122.876-19.082-152.667s-83.122,5.734-107.769-5.734-25.816-68.883-92.036-86.1-103.276,42.477-132.513,74.617S110.522,186.24,67.841,220.682c-42.163,34.056-6.409,188.277,24.792,223.839Z" transform="translate(-48.59 -98.243)"/></g><g transform="translate(88.237 141.15)"><line class="e" y2="37.513" transform="translate(113.239 5.529)"/><line class="e" y2="42.416" transform="translate(120.31 0.626)"/><line class="e" y2="42.416" transform="translate(127.381 0.626)"/><line class="e" y2="42.416" transform="translate(134.453 0.626)"/><line class="e" x1="42.428" transform="translate(137.946)"/><line class="e" x1="42.428" transform="translate(137.946 7.071)"/><line class="e" x1="42.428" transform="translate(137.946 14.143)"/><line class="e" x1="42.428" transform="translate(137.946 21.226)"/><line class="e" x1="42.428" transform="translate(137.946 28.298)"/><line class="e" x1="42.428" transform="translate(137.946 35.369)"/><line class="e" x1="42.428" transform="translate(137.946 42.44)"/><line class="e" y2="42.416" transform="translate(184.025 0.626)"/><line class="e" y2="42.416" transform="translate(191.096 0.626)"/><line class="e" y2="42.416" transform="translate(198.168 0.626)"/><line class="e" y2="42.416" transform="translate(205.239 0.626)"/><line class="e" y2="42.416" transform="translate(212.322 0.626)"/><line class="e" y2="42.416" transform="translate(219.394 0.626)"/><line class="e" y2="42.416" transform="translate(226.465 0.626)"/><line class="e" x1="42.428" transform="translate(229.959)"/><line class="e" x1="42.428" transform="translate(229.959 7.071)"/><line class="e" x1="42.428" transform="translate(229.959 14.143)"/><line class="e" x1="42.428" transform="translate(229.959 21.226)"/><line class="e" x1="42.428" transform="translate(229.959 28.298)"/><line class="e" x1="42.428" transform="translate(229.959 35.369)"/><line class="e" x1="42.428" transform="translate(229.959 42.44)"/><line class="e" y2="42.416" transform="translate(276.037 0.626)"/><line class="e" y2="36.357" transform="translate(283.109 6.686)"/><line class="e" x1="35.261" transform="translate(7.24 68.726)"/><line class="e" x1="42.416" transform="translate(0.084 75.798)"/><line class="e" x1="42.416" transform="translate(0.084 82.881)"/><line class="e" x1="42.416" transform="translate(0.084 89.952)"/><line class="e" y2="30.514" transform="translate(46.151 60.041)"/><line class="e" y2="31.285" transform="translate(53.222 59.27)"/><line class="e" y2="33.996" transform="translate(60.306 56.559)"/><line class="e" y2="36.706" transform="translate(67.377 53.849)"/><line class="e" y2="42.416" transform="translate(74.448 48.138)"/><line class="e" y2="42.416" transform="translate(81.52 48.138)"/><line class="e" y2="42.416" transform="translate(88.591 48.138)"/><line class="e" x1="42.416" transform="translate(92.097 47.512)"/><line class="e" x1="42.416" transform="translate(92.097 54.583)"/><line class="e" x1="42.416" transform="translate(92.097 61.655)"/><line class="e" x1="42.416" transform="translate(92.097 68.726)"/><line class="e" x1="42.416" transform="translate(92.097 75.798)"/><line class="e" x1="42.416" transform="translate(92.097 82.881)"/><line class="e" x1="42.416" transform="translate(92.097 89.952)"/><line class="e" y2="42.416" transform="translate(138.163 48.138)"/><line class="e" y2="42.416" transform="translate(145.234 48.138)"/><line class="e" y2="42.416" transform="translate(152.306 48.138)"/><line class="e" y2="42.416" transform="translate(159.389 48.138)"/><line class="e" y2="42.416" transform="translate(166.461 48.138)"/><line class="e" y2="42.416" transform="translate(173.532 48.138)"/><line class="e" y2="42.416" transform="translate(180.603 48.138)"/><line class="e" x1="42.416" transform="translate(184.109 47.512)"/><line class="e" x1="42.416" transform="translate(184.109 54.583)"/><line class="e" x1="42.416" transform="translate(184.109 61.655)"/><line class="e" x1="42.416" transform="translate(184.109 68.726)"/><line class="e" x1="42.416" transform="translate(184.109 75.798)"/><line class="e" x1="42.416" transform="translate(184.109 82.881)"/><line class="e" x1="42.416" transform="translate(184.109 89.952)"/><line class="e" y2="42.416" transform="translate(230.175 48.138)"/><line class="e" y2="42.416" transform="translate(237.247 48.138)"/><line class="e" y2="42.416" transform="translate(244.318 48.138)"/><line class="e" y2="42.416" transform="translate(251.402 48.138)"/><line class="e" y2="42.416" transform="translate(258.473 48.138)"/><line class="e" y2="42.416" transform="translate(265.544 48.138)"/><line class="e" y2="42.416" transform="translate(272.616 48.138)"/><line class="e" x1="42.416" transform="translate(276.121 47.512)"/><line class="e" x1="42.416" transform="translate(276.121 54.583)"/><line class="e" x1="42.416" transform="translate(276.121 61.655)"/><line class="e" x1="42.416" transform="translate(276.121 68.726)"/><line class="e" x1="42.416" transform="translate(276.121 75.798)"/><line class="e" x1="42.416" transform="translate(276.121 82.881)"/><line class="e" x1="42.416" transform="translate(276.121 89.952)"/><line class="e" y2="42.416" transform="translate(322.188 48.138)"/><line class="e" y2="33.225" transform="translate(329.259 57.33)"/><line class="e" y2="33.225" transform="translate(336.331 57.33)"/><line class="e" y2="35.538" transform="translate(343.414 55.017)"/><line class="e" y2="38.248" transform="translate(350.485 52.307)"/><line class="e" y2="39.79" transform="translate(357.557 50.765)"/><line class="e" y2="42.416" transform="translate(364.628 48.138)"/><line class="e" x1="42.428" transform="translate(368.122 54.583)"/><line class="e" x1="42.428" transform="translate(368.122 61.655)"/><line class="e" x1="42.428" transform="translate(368.122 68.726)"/><line class="e" x1="42.428" transform="translate(368.122 75.798)"/><line class="e" x1="42.428" transform="translate(368.122 82.881)"/><line class="e" x1="42.428" transform="translate(368.122 89.952)"/><line class="e" y2="42.416" transform="translate(0 96.205)"/><line class="e" y2="42.416" transform="translate(7.071 96.205)"/><line class="e" y2="42.416" transform="translate(14.143 96.205)"/><line class="e" y2="42.416" transform="translate(21.226 96.205)"/><line class="e" y2="42.416" transform="translate(28.298 96.205)"/><line class="e" y2="42.416" transform="translate(35.369 96.205)"/><line class="e" y2="42.416" transform="translate(42.44 96.205)"/><line class="e" x1="42.428" transform="translate(45.934 95.566)"/><line class="e" x1="42.428" transform="translate(45.934 102.638)"/><line class="e" x1="42.428" transform="translate(45.934 109.721)"/><line class="e" x1="42.428" transform="translate(45.934 116.792)"/><line class="e" x1="42.428" transform="translate(45.934 123.864)"/><line class="e" x1="42.428" transform="translate(45.934 130.935)"/><line class="e" x1="42.428" transform="translate(45.934 138.007)"/><line class="e" y2="42.416" transform="translate(92.012 96.205)"/><line class="e" y2="42.416" transform="translate(99.084 96.205)"/><line class="e" y2="42.416" transform="translate(106.155 96.205)"/><line class="e" y2="42.416" transform="translate(113.239 96.205)"/><line class="e" y2="42.416" transform="translate(120.31 96.205)"/><line class="e" y2="42.416" transform="translate(127.381 96.205)"/><line class="e" y2="42.416" transform="translate(134.453 96.205)"/><line class="e" x1="42.428" transform="translate(137.946 95.566)"/><line class="e" x1="42.428" transform="translate(137.946 102.638)"/><line class="e" x1="42.428" transform="translate(137.946 109.721)"/><line class="e" x1="42.428" transform="translate(137.946 116.792)"/><line class="e" x1="42.428" transform="translate(137.946 123.864)"/><line class="e" x1="42.428" transform="translate(137.946 130.935)"/><line class="e" x1="42.428" transform="translate(137.946 138.007)"/><line class="e" y2="42.416" transform="translate(184.025 96.205)"/><line class="e" y2="42.416" transform="translate(191.096 96.205)"/><line class="e" y2="42.416" transform="translate(198.168 96.205)"/><line class="e" y2="42.416" transform="translate(205.239 96.205)"/><line class="e" y2="42.416" transform="translate(212.322 96.205)"/><line class="e" y2="42.416" transform="translate(219.394 96.205)"/><line class="e" y2="42.416" transform="translate(226.465 96.205)"/><line class="e" x1="42.428" transform="translate(229.959 95.566)"/><line class="e" x1="42.428" transform="translate(229.959 102.638)"/><line class="e" x1="42.428" transform="translate(229.959 109.721)"/><line class="e" x1="42.428" transform="translate(229.959 116.792)"/><line class="e" x1="42.428" transform="translate(229.959 123.864)"/><line class="e" x1="42.428" transform="translate(229.959 130.935)"/><line class="e" x1="42.428" transform="translate(229.959 138.007)"/><line class="e" y2="42.416" transform="translate(276.037 96.205)"/><line class="e" y2="42.416" transform="translate(283.109 96.205)"/><line class="e" y2="42.416" transform="translate(290.18 96.205)"/><line class="e" y2="42.416" transform="translate(297.251 96.205)"/><line class="e" y2="42.416" transform="translate(304.335 96.205)"/><line class="e" y2="42.416" transform="translate(311.406 96.205)"/><line class="e" y2="42.416" transform="translate(318.477 96.205)"/><line class="e" x1="42.416" transform="translate(321.971 95.566)"/><line class="e" x1="42.416" transform="translate(321.971 102.638)"/><line class="e" x1="42.416" transform="translate(321.971 109.721)"/><line class="e" x1="42.416" transform="translate(321.971 116.792)"/><line class="e" x1="42.416" transform="translate(321.971 123.864)"/><line class="e" x1="42.416" transform="translate(321.971 130.935)"/><line class="e" x1="42.416" transform="translate(321.971 138.007)"/><line class="e" y2="42.416" transform="translate(368.049 96.205)"/><line class="e" y2="42.416" transform="translate(375.121 96.205)"/><line class="e" y2="42.416" transform="translate(382.192 96.205)"/><line class="e" y2="42.416" transform="translate(389.264 96.205)"/><line class="e" y2="42.416" transform="translate(396.347 96.205)"/><line class="e" y2="42.416" transform="translate(403.418 96.205)"/><line class="e" y2="42.416" transform="translate(410.49 96.205)"/><line class="e" x1="42.416" transform="translate(0.084 143.078)"/><line class="e" x1="42.416" transform="translate(0.084 150.15)"/><line class="e" x1="42.416" transform="translate(0.084 157.221)"/><line class="e" x1="42.416" transform="translate(0.084 164.304)"/><line class="e" x1="42.416" transform="translate(0.084 171.376)"/><line class="e" x1="42.416" transform="translate(0.084 178.447)"/><line class="e" x1="42.416" transform="translate(0.084 185.519)"/><line class="e" y2="42.416" transform="translate(46.151 143.705)"/><line class="e" y2="42.416" transform="translate(53.222 143.705)"/><line class="e" y2="42.416" transform="translate(60.306 143.705)"/><line class="e" y2="42.416" transform="translate(67.377 143.705)"/><line class="e" y2="42.416" transform="translate(74.448 143.705)"/><line class="e" y2="42.416" transform="translate(81.52 143.705)"/><line class="e" y2="42.416" transform="translate(88.591 143.705)"/><line class="e" x1="42.416" transform="translate(92.097 143.078)"/><line class="e" x1="42.416" transform="translate(92.097 150.15)"/><line class="e" x1="42.416" transform="translate(92.097 157.221)"/><line class="e" x1="42.416" transform="translate(92.097 164.304)"/><line class="e" x1="42.416" transform="translate(92.097 171.376)"/><line class="e" x1="42.416" transform="translate(92.097 178.447)"/><line class="e" x1="42.416" transform="translate(92.097 185.519)"/><line class="e" y2="42.416" transform="translate(138.163 143.705)"/><line class="e" y2="42.416" transform="translate(145.234 143.705)"/><line class="e" y2="42.416" transform="translate(152.306 143.705)"/><line class="e" y2="42.416" transform="translate(159.389 143.705)"/><line class="e" y2="42.416" transform="translate(166.461 143.705)"/><line class="e" y2="42.416" transform="translate(173.532 143.705)"/><line class="e" y2="42.416" transform="translate(180.603 143.705)"/><line class="e" x1="42.416" transform="translate(184.109 143.078)"/><line class="e" x1="42.416" transform="translate(184.109 150.15)"/><line class="e" x1="42.416" transform="translate(184.109 157.221)"/><line class="e" x1="42.416" transform="translate(184.109 164.304)"/><line class="e" x1="42.416" transform="translate(184.109 171.376)"/><line class="e" x1="42.416" transform="translate(184.109 178.447)"/><line class="e" x1="42.416" transform="translate(184.109 185.519)"/><line class="e" y2="42.416" transform="translate(230.175 143.705)"/><line class="e" y2="42.416" transform="translate(237.247 143.705)"/><line class="e" y2="42.416" transform="translate(244.318 143.705)"/><line class="e" y2="42.416" transform="translate(251.402 143.705)"/><line class="e" y2="42.416" transform="translate(258.473 143.705)"/><line class="e" y2="42.416" transform="translate(265.544 143.705)"/><line class="e" y2="42.416" transform="translate(272.616 143.705)"/><line class="e" x1="42.416" transform="translate(276.121 143.078)"/><line class="e" x1="42.416" transform="translate(276.121 150.15)"/><line class="e" x1="42.416" transform="translate(276.121 157.221)"/><line class="e" x1="42.416" transform="translate(276.121 164.304)"/><line class="e" x1="42.416" transform="translate(276.121 171.376)"/><line class="e" x1="42.416" transform="translate(276.121 178.447)"/><line class="e" x1="42.416" transform="translate(276.121 185.519)"/><line class="e" y2="42.416" transform="translate(322.188 143.705)"/><line class="e" y2="42.416" transform="translate(329.259 143.705)"/><line class="e" y2="42.416" transform="translate(336.331 143.705)"/><line class="e" y2="42.416" transform="translate(343.414 143.705)"/><line class="e" y2="42.416" transform="translate(350.485 143.705)"/><line class="e" y2="42.416" transform="translate(357.557 143.705)"/><line class="e" y2="42.416" transform="translate(364.628 143.705)"/><line class="e" x1="42.428" transform="translate(368.122 143.078)"/><line class="e" x1="42.428" transform="translate(368.122 150.15)"/><line class="e" x1="42.428" transform="translate(368.122 157.221)"/><line class="e" x1="42.428" transform="translate(368.122 164.304)"/><line class="e" x1="42.428" transform="translate(368.122 171.376)"/><line class="e" x1="42.428" transform="translate(368.122 178.447)"/><line class="e" x1="42.428" transform="translate(368.122 185.519)"/><line class="e" y2="42.416" transform="translate(0 191.771)"/><line class="e" y2="42.416" transform="translate(7.071 191.771)"/><line class="e" y2="42.416" transform="translate(14.143 191.771)"/><line class="e" y2="42.416" transform="translate(21.226 191.771)"/><line class="e" y2="42.416" transform="translate(28.298 191.771)"/><line class="e" y2="42.416" transform="translate(35.369 191.771)"/><line class="e" y2="42.416" transform="translate(42.44 191.771)"/><line class="e" x1="42.428" transform="translate(45.934 191.144)"/><line class="e" x1="42.428" transform="translate(45.934 198.216)"/><line class="e" x1="42.428" transform="translate(45.934 205.287)"/><line class="e" x1="42.428" transform="translate(45.934 212.359)"/><line class="e" x1="42.428" transform="translate(45.934 219.43)"/><line class="e" x1="42.428" transform="translate(45.934 226.513)"/><line class="e" x1="42.428" transform="translate(45.934 233.585)"/><line class="e" y2="42.416" transform="translate(92.012 191.771)"/><line class="e" y2="42.416" transform="translate(99.084 191.771)"/><line class="e" y2="42.416" transform="translate(106.155 191.771)"/><line class="e" y2="42.416" transform="translate(113.239 191.771)"/><line class="e" y2="42.416" transform="translate(120.31 191.771)"/><line class="e" y2="42.416" transform="translate(127.381 191.771)"/><line class="e" y2="42.416" transform="translate(134.453 191.771)"/><line class="e" x1="42.428" transform="translate(137.946 191.144)"/><line class="e" x1="42.428" transform="translate(137.946 198.216)"/><line class="e" x1="42.428" transform="translate(137.946 205.287)"/><line class="e" x1="42.428" transform="translate(137.946 212.359)"/><line class="e" x1="42.428" transform="translate(137.946 219.43)"/><line class="e" x1="42.428" transform="translate(137.946 226.513)"/><line class="e" x1="42.428" transform="translate(137.946 233.585)"/><line class="e" y2="42.416" transform="translate(184.025 191.771)"/><line class="e" y2="42.416" transform="translate(191.096 191.771)"/><line class="e" y2="42.416" transform="translate(198.168 191.771)"/><line class="e" y2="42.416" transform="translate(205.239 191.771)"/><line class="e" y2="42.416" transform="translate(212.322 191.771)"/><line class="e" y2="42.416" transform="translate(219.394 191.771)"/><line class="e" y2="42.416" transform="translate(226.465 191.771)"/><line class="e" x1="42.428" transform="translate(229.959 191.144)"/><line class="e" x1="42.428" transform="translate(229.959 198.216)"/><line class="e" x1="42.428" transform="translate(229.959 205.287)"/><line class="e" x1="42.428" transform="translate(229.959 212.359)"/><line class="e" x1="42.428" transform="translate(229.959 219.43)"/><line class="e" x1="42.428" transform="translate(229.959 226.513)"/><line class="e" x1="42.428" transform="translate(229.959 233.585)"/><line class="e" y2="42.416" transform="translate(276.037 191.771)"/><line class="e" y2="42.416" transform="translate(283.109 191.771)"/><line class="e" y2="42.416" transform="translate(290.18 191.771)"/><line class="e" y2="42.416" transform="translate(297.251 191.771)"/><line class="e" y2="42.416" transform="translate(304.335 191.771)"/><line class="e" y2="42.416" transform="translate(311.406 191.771)"/><line class="e" y2="42.416" transform="translate(318.477 191.771)"/><line class="e" x1="42.416" transform="translate(321.971 191.144)"/><line class="e" x1="42.416" transform="translate(321.971 198.216)"/><line class="e" x1="42.416" transform="translate(321.971 205.287)"/><line class="e" x1="42.416" transform="translate(321.971 212.359)"/><line class="e" x1="42.416" transform="translate(321.971 219.43)"/><line class="e" x1="42.416" transform="translate(321.971 226.513)"/><line class="e" x1="42.416" transform="translate(321.971 233.585)"/><line class="e" y2="42.416" transform="translate(368.049 191.771)"/><line class="e" y2="42.416" transform="translate(375.121 191.771)"/><line class="e" y2="42.416" transform="translate(382.192 191.771)"/><line class="e" y2="42.416" transform="translate(389.264 191.771)"/><line class="e" y2="42.416" transform="translate(396.347 191.771)"/><line class="e" y2="42.416" transform="translate(403.418 191.771)"/><line class="e" y2="42.416" transform="translate(410.49 191.771)"/><path class="f" d="M226.684,300.179H153.85V153.21h72.834ZM304.855,153.21H232.021V300.179h72.834Zm78.171,0H310.2V300.179h72.822Z" transform="translate(-65.982 -129.9)"/><path class="c" d="M226.684,300.185H153.85v-1.952c9.866-7.674,33.634-22.612,72.834-26.5Zm156.342-47.078c-17.672,9.818-42.44,14.239-72.822,16.191v30.888h72.822Zm-78.171,16.5c-17.865.964-37.549,1.2-58.8,1.2-4.819,0-9.529.193-14.034.506v28.912h72.834Zm-78.171-26.587V177.056c-19.817-10.42-44.3-18.7-61.631-23.876h-11.2V260.4c21.19-6.168,50.355-9.794,72.834-17.371Zm78.171-9.794a278.937,278.937,0,0,1-49.138,11.023,7.879,7.879,0,0,0-3.313.964c-7.228,4.819,23.009,6.361,26.262,6.337a222.171,222.171,0,0,0,26.189-1.759Zm-44.814-18.576c2.024-12.794-10.529-24.6-28.069-34.658v61.1C247.031,235.278,258.1,227.219,260.041,214.654Zm122.876-19.275a326.463,326.463,0,0,1-72.822,36.14v17.612c25.033-3.7,49.283-11.24,72.822-20.744Zm-83.411,16.612a18.912,18.912,0,0,0,5.349-.108V153.192H246.79C253.753,169.214,273.461,208.8,299.506,211.992ZM350.572,153.2H310.2v57.125c17.636-7.541,32.213-37.043,40.368-57.137Z" transform="translate(-65.982 -129.906)"/><path class="g" d="M226.684,300.185H153.85v-1.952c9.866-7.674,33.634-22.612,72.834-26.5Zm156.342-47.078c-17.672,9.818-42.44,14.239-72.822,16.191v30.888h72.822Zm-78.171,16.5c-17.865.964-37.549,1.2-58.8,1.2-4.819,0-9.529.193-14.034.506v28.912h72.834Zm-78.171-26.587V177.056c-19.817-10.42-44.3-18.7-61.631-23.876h-11.2V260.4c21.19-6.168,50.355-9.794,72.834-17.371Zm78.171-9.794a278.937,278.937,0,0,1-49.138,11.023,7.879,7.879,0,0,0-3.313.964c-7.228,4.819,23.009,6.361,26.262,6.337a222.171,222.171,0,0,0,26.189-1.759Zm-44.814-18.576c2.024-12.794-10.529-24.6-28.069-34.658v61.1C247.031,235.278,258.1,227.219,260.041,214.654Zm122.876-19.275a326.463,326.463,0,0,1-72.822,36.14v17.612c25.033-3.7,49.283-11.24,72.822-20.744Zm-83.411,16.612a18.912,18.912,0,0,0,5.349-.108V153.192H246.79C253.753,169.214,273.461,208.8,299.506,211.992ZM350.572,153.2H310.2v57.125c17.636-7.541,32.213-37.043,40.368-57.137Z" transform="translate(-65.982 -129.906)"/></g><g transform="translate(462.426 284.057)"><path class="c" d="M446.158,328.75s.94-3.445.964-3.614c.373-2.614-.47-7.866-3.12-9.143a3.494,3.494,0,0,0-4.758,2.1c-.711,1.964.193,4.361,1.265,6.023C441.761,325.979,446.146,328.738,446.158,328.75Z" transform="translate(-381.812 -239.555)"/><path class="c" d="M402.212,327.067c2.108.928,7.288.807,7.3.807s-1.12-3.385-1.2-3.614c-1.132-2.409-4.734-6.312-7.65-5.915a3.494,3.494,0,0,0-2.807,4.373C398.321,324.778,400.465,326.284,402.212,327.067Z" transform="translate(-390.258 -239.016)"/><path class="c" d="M410.189,319.115h0c-.12.831-.229,1.723-.337,2.71-.181,1.807-.361,3.855-.422,6.1a64.865,64.865,0,0,0,.181,7.228,46.266,46.266,0,0,0,1.337,7.987v.1c-.47-.735-1.831-2.735-1.964-2.867-1.723-2-6.216-4.819-8.939-3.674a3.482,3.482,0,0,0-1.542,4.951c1,1.831,3.4,2.735,5.349,3.012,2.192.325,6.818-1.012,7.228-1.12a61.853,61.853,0,0,0,2.795,7.758c.638,1.47,1.325,2.927,2.036,4.385a9.762,9.762,0,0,0-.867-1.2c-1.723-2-6.228-4.819-8.951-3.686a3.493,3.493,0,0,0-1.542,4.963c1,1.831,3.409,2.735,5.349,3.012s5.939-.771,6.987-1.072l.831,1.675c1.337,2.662,2.686,5.325,3.927,7.963.434.928.831,1.867,1.2,2.795-.373-.542-.687-1-.747-1.072-1.723-1.988-6.228-4.819-8.939-3.674a3.493,3.493,0,0,0-1.554,4.963c1.012,1.831,3.409,2.735,5.361,3.012s5.553-.675,6.794-1.024c.385.976.759,1.94,1.1,2.891.2.663.446,1.277.614,1.952s.373,1.313.554,1.964c.3,1.265.626,2.554.891,3.795.181.855.349,1.687.518,2.506-.422-.928-1.289-2.735-1.385-2.879-1.4-2.229-5.421-5.71-8.288-4.987a3.493,3.493,0,0,0-2.277,4.674c.723,1.952,2.951,3.2,4.819,3.783,2.084.638,6.662,0,7.228,0,.277,1.373.53,2.71.747,3.975.7,3.975,1.2,7.361,1.458,9.878h1.988c-.361-2.566-.9-6.023-1.723-10.2-.277-1.385-.6-2.867-.94-4.4a37.352,37.352,0,0,0,4.036-1.891,25.456,25.456,0,0,0,5.879,3.795c-.53,1.289-1.048,2.542-1.566,3.722-1.59,3.614-3.06,6.722-4.2,8.975h2.18c1.024-2.192,2.289-5,3.614-8.3.542-1.313,1.1-2.723,1.638-4.18.554.12,5.108,1.036,7.228.566,1.927-.434,4.253-1.518,5.108-3.421a3.506,3.506,0,0,0-1.927-4.819c-2.795-.94-7.071,2.241-8.637,4.361-.084.133-.94,1.59-1.458,2.53.217-.59.446-1.2.663-1.783.446-1.2.855-2.409,1.3-3.771.193-.638.4-1.289.59-1.952s.349-1.361.53-2.048c.373-1.59.687-3.228.952-4.891,1.072.4,4.819,1.723,6.855,1.578s4.421-.855,5.554-2.6a3.494,3.494,0,0,0-1.2-5.072c-2.626-1.349-7.324,1.144-9.192,3.012-.12.108-1.313,1.59-1.952,2.409.157-1,.325-1.988.446-3,.361-2.927.638-5.9.928-8.866l.289-2.723c.373.145,4.819,1.819,7.071,1.662,1.964-.133,4.433-.855,5.566-2.6a3.481,3.481,0,0,0-1.2-5.06c-2.626-1.361-7.324,1.132-9.192,3-.145.132-1.855,2.277-2.265,2.843.217-2,.446-3.987.747-5.927a63.34,63.34,0,0,1,1.7-7.794c.181.06,4.819,1.831,7.12,1.674,1.964-.145,4.421-.855,5.566-2.6a3.506,3.506,0,0,0-1.2-5.072c-2.614-1.349-7.324,1.145-9.192,3-.12.12-1.422,1.759-2.024,2.542l-.145-.072a45.235,45.235,0,0,1,3.084-7.409c.675-1.313,1.385-2.53,2.108-3.7.843.422,4.7,2.289,6.746,2.409s4.493-.373,5.819-1.976a3.506,3.506,0,0,0-.349-5.312c-2.409-1.626-7.409.337-9.469,1.976-.108.084-1.144,1.12-1.891,1.891.337-.53.663-1.072,1-1.566,1.2-1.855,2.482-3.482,3.614-4.915.638-.807,1.2-1.53,1.795-2.193,1.036,0,5.216-.145,7.047-1s3.819-2.409,4.24-4.445a3.494,3.494,0,0,0-2.915-4.3c-2.939-.313-6.421,3.71-7.493,6.12-.1.2-1.2,3.614-1.108,3.614h.06c-.554.626-1.144,1.313-1.771,2.072-1.2,1.409-2.409,3.012-3.71,4.819a62.033,62.033,0,0,0-3.855,6.132,45.614,45.614,0,0,0-3.373,7.457.375.375,0,0,1,0,.1V338.8c-.337-2.614-2.53-7.469-5.433-8a3.482,3.482,0,0,0-4.024,3.277c-.169,2.084,1.337,4.156,2.807,5.469s6.252,2.915,6.614,3.024a62.224,62.224,0,0,0-2.012,8.035c-.289,1.578-.518,3.18-.735,4.819v-1.506c-.337-2.614-2.53-7.457-5.433-8a3.494,3.494,0,0,0-4.072,3.241c-.169,2.072,1.337,4.156,2.795,5.457s5.385,2.638,6.421,2.963c-.072.614-.157,1.2-.229,1.855-.349,2.951-.7,5.915-1.12,8.806-.145,1.012-.325,2.012-.506,3.012V369.94c-.337-2.6-2.53-7.457-5.433-8a3.481,3.481,0,0,0-4.024,3.289c-.181,2.072,1.325,4.156,2.795,5.469s5.011,2.494,6.24,2.891c-.217,1.024-.434,2.036-.687,3.012-.193.663-.325,1.325-.554,1.976s-.422,1.3-.626,1.939c-.446,1.2-.891,2.482-1.349,3.614-.325.831-.638,1.6-.952,2.409.157-1.012.434-3,.434-3.168a13.552,13.552,0,0,0-1.819-6.59,4.275,4.275,0,0,0,0-.783,3.482,3.482,0,0,0-4.265-2.951c-2.855.759-4.662,5.758-4.819,8.433,0,.145.084,1.843.169,2.915-.145-.626-.277-1.2-.434-1.867-.3-1.2-.626-2.506-.988-3.855-.193-.638-.386-1.289-.59-1.952s-.458-1.325-.687-2c-.566-1.542-1.2-3.072-1.9-4.6,1.108-.265,5.011-1.265,6.59-2.47s3.216-3.156,3.192-5.24a3.493,3.493,0,0,0-3.771-3.614c-2.927.325-5.481,5-6.023,7.577,0,.157-.2,2.06-.277,3.1-.422-.916-.831-1.831-1.289-2.747-1.313-2.638-2.723-5.276-4.12-7.9l-1.265-2.409c.4-.1,5.072-1.2,6.818-2.53s3.228-3.156,3.2-5.24a3.47,3.47,0,0,0-3.771-3.614c-2.927.313-5.481,4.987-6.023,7.565,0,.193-.289,2.927-.313,3.614-.928-1.771-1.831-3.554-2.65-5.349a62.092,62.092,0,0,1-2.879-7.433c.181,0,5.06-1.2,6.867-2.53,1.554-1.2,3.216-3.168,3.192-5.24a3.482,3.482,0,0,0-3.771-3.614c-2.927.313-5.481,4.987-6.023,7.565,0,.169-.217,2.253-.289,3.241h-.169a44.451,44.451,0,0,1-1.494-7.891c-.169-1.458-.241-2.867-.289-4.24.928-.12,5.168-.687,6.927-1.747s3.614-2.783,3.759-4.819a3.481,3.481,0,0,0-3.349-3.963c-2.952,0-6.023,4.349-6.806,6.867,0,.132-.349,1.566-.542,2.614v-1.855c0-2.229.145-4.277.289-6.084.084-1.024.193-1.952.289-2.819.855-.59,4.265-3,5.313-4.722s1.867-4.108,1.108-6.023a3.506,3.506,0,0,0-4.819-1.976c-2.614,1.349-3.3,6.626-2.867,9.228A36.256,36.256,0,0,0,410.189,319.115Z" transform="translate(-390.199 -241.569)"/><path class="c" d="M439.956,275.29s.94-3.445.976-3.674c.361-2.6-.47-7.866-3.132-9.143a3.481,3.481,0,0,0-4.746,2.1c-.711,1.964.193,4.361,1.2,6.023C435.571,272.52,439.956,275.29,439.956,275.29Z" transform="translate(-383.079 -250.509)"/><path class="c" d="M396.012,273.6c2.12.928,7.3.807,7.3.807s-1.12-3.385-1.2-3.614c-1.132-2.409-4.722-6.3-7.65-5.915a3.506,3.506,0,0,0-2.807,4.385C392.1,271.307,394.205,272.813,396.012,273.6Z" transform="translate(-391.526 -249.959)"/><path class="c" d="M403.989,265.621h0c-.108.831-.229,1.735-.337,2.711-.169,1.807-.361,3.855-.41,6.1a61.841,61.841,0,0,0,.169,7.228,46.082,46.082,0,0,0,1.337,7.987v.1c-.47-.735-1.831-2.723-1.952-2.867-1.723-1.988-6.228-4.819-8.951-3.674a3.493,3.493,0,0,0-1.542,4.963c1,1.819,3.409,2.723,5.349,3.012,2.2.313,6.818-1.024,7.228-1.132a61.861,61.861,0,0,0,2.795,7.758c.638,1.47,1.325,2.939,2.036,4.4a8.782,8.782,0,0,0-.867-1.2c-1.723-2-6.228-4.819-8.939-3.674a3.493,3.493,0,0,0-1.554,4.963c1.012,1.819,3.409,2.723,5.361,3.012s5.939-.783,6.975-1.072l.831,1.662c1.337,2.674,2.686,5.325,3.927,7.963.434.94.831,1.867,1.2,2.807-.373-.554-.7-1.012-.759-1.072-1.723-2-6.228-4.819-8.939-3.686a3.493,3.493,0,0,0-1.542,4.963c1,1.831,3.4,2.735,5.349,3.012s5.554-.675,6.794-1.012c.385.964.771,1.927,1.1,2.891.2.651.446,1.265.626,1.939l.542,1.964c.3,1.2.626,2.566.891,3.795.193.867.349,1.687.518,2.518-.422-.94-1.289-2.747-1.385-2.891-1.4-2.229-5.421-5.71-8.276-4.987a3.506,3.506,0,0,0-2.289,4.674c.723,1.952,2.951,3.216,4.819,3.783,2.072.638,6.662.06,7.228,0,.277,1.373.53,2.711.747,3.975.711,3.975,1.2,7.373,1.458,9.89h1.988c-.361-2.566-.9-6.023-1.723-10.2-.277-1.4-.59-2.879-.94-4.4a41.074,41.074,0,0,0,4.036-1.9,25.707,25.707,0,0,0,5.879,3.795c-.518,1.289-1.048,2.554-1.566,3.722-1.59,3.614-3.06,6.722-4.192,8.987h2.168c1.036-2.2,2.289-5.011,3.614-8.3.542-1.313,1.1-2.735,1.65-4.192.554.12,5.1,1.048,7.228.566,1.927-.434,4.252-1.518,5.108-3.421a3.481,3.481,0,0,0-1.927-4.819c-2.795-.94-7.059,2.229-8.625,4.349-.1.133-.952,1.6-1.47,2.53.229-.59.446-1.2.675-1.783.446-1.2.855-2.409,1.3-3.771q.289-.964.578-1.952c.2-.651.349-1.361.53-2.036.373-1.6.687-3.241.964-4.891,1.06.385,4.819,1.711,6.842,1.566s4.421-.855,5.566-2.6a3.494,3.494,0,0,0-1.2-5.06c-2.626-1.361-7.324,1.132-9.192,3-.12.108-1.3,1.6-1.94,2.409.157-.988.313-1.988.446-3,.361-2.927.638-5.9.928-8.866.084-.9.181-1.807.277-2.71.373.132,4.819,1.807,7.083,1.65,1.964-.133,4.421-.855,5.553-2.6a3.481,3.481,0,0,0-1.2-5.06c-2.626-1.349-7.324,1.2-9.192,3-.145.133-1.855,2.277-2.265,2.843.217-2,.446-3.975.747-5.927a63.332,63.332,0,0,1,1.7-7.794c.181.072,4.819,1.831,7.12,1.675,1.964-.133,4.433-.855,5.566-2.6a3.494,3.494,0,0,0-1.2-5.06c-2.626-1.361-7.324,1.132-9.192,3-.133.12-1.434,1.747-2.036,2.53l-.145-.072a44.084,44.084,0,0,1,3.1-7.4c.663-1.313,1.385-2.53,2.108-3.71.831.422,4.686,2.289,6.734,2.409s4.493-.361,5.818-1.976a3.494,3.494,0,0,0-.614-5.156c-2.409-1.638-7.4.325-9.469,1.964l-1.891,1.891c.337-.518.675-1.072,1-1.566,1.2-1.855,2.482-3.482,3.614-4.915.638-.807,1.2-1.53,1.807-2.193,1.036,0,5.2-.145,7.035-1s3.819-2.409,4.252-4.433a3.494,3.494,0,0,0-2.927-4.3c-2.927-.325-6.421,3.7-7.493,6.108-.1.2-1.2,3.614-1.108,3.614h.06c-.554.626-1.2,1.313-1.771,2.072-1.144,1.409-2.409,3.012-3.71,4.819a62.02,62.02,0,0,0-3.855,6.132,46.069,46.069,0,0,0-3.277,7.4v-3.373c-.337-2.614-2.518-7.469-5.421-8a3.494,3.494,0,0,0-4.036,3.277c-.169,2.084,1.337,4.156,2.807,5.469s6.252,2.915,6.614,3.024a62.4,62.4,0,0,0-1.94,8.023c-.277,1.578-.518,3.168-.735,4.819v-1.518c-.337-2.614-2.53-7.457-5.433-8a3.494,3.494,0,0,0-4.024,3.289c-.169,2.072,1.337,4.156,2.807,5.469s5.385,2.626,6.409,2.951c-.072.626-.157,1.2-.229,1.855-.349,2.963-.687,5.915-1.12,8.806-.145,1.024-.325,2.012-.506,3.012v-1.3c-.337-2.614-2.53-7.469-5.433-8a3.481,3.481,0,0,0-4.023,3.277c-.169,2.084,1.337,4.156,2.795,5.469s5.011,2.506,6.24,2.9c-.217,1.012-.434,2.036-.687,3.012-.193.663-.325,1.313-.554,1.964s-.422,1.3-.626,1.939c-.446,1.2-.891,2.482-1.349,3.614-.313.819-.638,1.59-.952,2.409.157-1.012.434-3,.434-3.168a13.42,13.42,0,0,0-1.819-6.59,3.277,3.277,0,0,0,0-.771,3.494,3.494,0,0,0-4.264-2.964c-2.855.759-4.662,5.758-4.819,8.433,0,.157.084,1.843.169,2.915-.145-.626-.277-1.2-.434-1.867-.289-1.2-.626-2.506-.988-3.855-.193-.638-.385-1.289-.59-1.952s-.458-1.325-.687-1.988c-.566-1.542-1.2-3.084-1.891-4.614,1.1-.265,5.011-1.2,6.577-2.409s3.216-3.168,3.2-5.252a3.493,3.493,0,0,0-3.783-3.614c-2.927.313-5.469,4.987-6.023,7.565,0,.169-.2,2.06-.277,3.1-.422-.916-.831-1.831-1.289-2.747-1.313-2.638-2.723-5.276-4.108-7.9q-.651-1.2-1.265-2.409c.385-.1,5.06-1.2,6.818-2.518,1.554-1.2,3.216-3.168,3.2-5.24a3.506,3.506,0,0,0-3.783-3.614c-2.927.313-5.469,4.987-6.023,7.565,0,.2-.277,2.927-.313,3.614-.916-1.783-1.831-3.614-2.65-5.361a62.1,62.1,0,0,1-2.879-7.433c.181,0,5.06-1.2,6.867-2.53,1.554-1.2,3.216-3.156,3.2-5.24a3.494,3.494,0,0,0-3.771-3.614c-2.939.313-5.481,4.987-6.023,7.577,0,.169-.217,2.241-.289,3.229h-.169a45.661,45.661,0,0,1-1.494-7.879c-.169-1.47-.241-2.879-.289-4.252.928-.108,5.18-.675,6.927-1.747s3.554-2.783,3.771-4.819a3.494,3.494,0,0,0-3.361-3.963c-2.951,0-6.023,4.361-6.806,6.867,0,.132-.337,1.566-.542,2.614v-1.855c0-2.229.145-4.277.277-6.084.1-1.024.193-1.952.289-2.819.855-.59,4.265-3,5.325-4.722s1.855-4.1,1.1-6.023a3.494,3.494,0,0,0-4.819-1.976c-2.626,1.349-3.313,6.626-2.879,9.228C402.953,262.212,403.941,265.657,403.989,265.621Z" transform="translate(-391.468 -252.489)"/></g><g transform="translate(294.271 238.621)"><path class="a" d="M375.036,284.585h75.219s6.951,1.2,4.638,15.046S441,402.028,441,402.028H336.27L359.086,289.4S360.038,283.429,375.036,284.585Z" transform="translate(-234.681 -200.513)"/><path class="h" d="M439.427,299.608c-2.313,13.89-13.89,102.4-13.89,102.4h-13.7c3.084-20.961,14.589-98.614,16.588-107.613s5.264-9.782,6.144-9.842h.217S441.74,285.719,439.427,299.608Z" transform="translate(-219.214 -200.49)"/><path class="b" d="M301.086,377.294l15.552-25.924-1.819,38.116-17.889-.265Z" transform="translate(-242.732 -186.814)"/><path class="a" d="M298.38,372h6.276c2.072,0,1.554,2.072,2.337,6.228s-7.011,7-7.011,7,1.819,0-1.289.518S292.164,376.71,298.38,372Z" transform="translate(-243.146 -182.592)"/><path class="f" d="M314.438,385.9s-8.818-9.336-14-17.877-11.938-17.636-14.01-19.19a40.356,40.356,0,0,0-10.625-5.18c-4.156-1.3-8.047-6.481-9.083-4.927a4.457,4.457,0,0,0,1.3,5.445c1.554,1.036,6.216,3.891,6.216,3.891s-7.517,1.289-10.107,1.289-10.107-7.782-11.408-5.963c-.494.687-.277,1.759.289,2.915-.626-.313-1.072-.277-1.072.458,0,2.59,4.927,8.818,8.3,11.155a11.237,11.237,0,0,0,2,1.132,13.4,13.4,0,0,0,3.445,4.313,14.155,14.155,0,0,0,5.553,2.108c6.987,2.59,16.227,5.662,16.227,5.662l10.119,20.744h20.226Z" transform="translate(-251.94 -189.461)"/><g class="i" transform="translate(0 148.98)"><path class="c" d="M314.438,385.9s-8.818-9.336-14-17.877-11.938-17.636-14.01-19.19a40.356,40.356,0,0,0-10.625-5.18c-4.156-1.3-8.047-6.481-9.083-4.927a4.457,4.457,0,0,0,1.3,5.445c1.554,1.036,6.216,3.891,6.216,3.891s-7.517,1.289-10.107,1.289-10.107-7.782-11.408-5.963c-.494.687-.277,1.759.289,2.915-.626-.313-1.072-.277-1.072.458,0,2.59,4.927,8.818,8.3,11.155a11.237,11.237,0,0,0,2,1.132,13.4,13.4,0,0,0,3.445,4.313,14.155,14.155,0,0,0,5.553,2.108c6.987,2.59,16.227,5.662,16.227,5.662l10.119,20.744h20.226Z" transform="translate(-251.94 -338.441)"/><path class="j" d="M314.438,385.9s-8.818-9.336-14-17.877-11.938-17.636-14.01-19.19a40.356,40.356,0,0,0-10.625-5.18c-4.156-1.3-8.047-6.481-9.083-4.927a4.457,4.457,0,0,0,1.3,5.445c1.554,1.036,6.216,3.891,6.216,3.891s-7.517,1.289-10.107,1.289-10.107-7.782-11.408-5.963c-.494.687-.277,1.759.289,2.915-.626-.313-1.072-.277-1.072.458,0,2.59,4.927,8.818,8.3,11.155a11.237,11.237,0,0,0,2,1.132,13.4,13.4,0,0,0,3.445,4.313,14.155,14.155,0,0,0,5.553,2.108c6.987,2.59,16.227,5.662,16.227,5.662l10.119,20.744h20.226Z" transform="translate(-251.94 -338.441)"/></g><path class="k" d="M314.438,385.9s-8.818-9.336-14-17.877-11.938-17.636-14.01-19.19a40.356,40.356,0,0,0-10.625-5.18c-4.156-1.3-8.047-6.481-9.083-4.927a4.457,4.457,0,0,0,1.3,5.445c1.554,1.036,6.216,3.891,6.216,3.891s-7.517,1.289-10.107,1.289-10.107-7.782-11.408-5.963c-.494.687-.277,1.759.289,2.915-.626-.313-1.072-.277-1.072.458,0,2.59,4.927,8.818,8.3,11.155a11.237,11.237,0,0,0,2,1.132,13.4,13.4,0,0,0,3.445,4.313,14.155,14.155,0,0,0,5.553,2.108c6.987,2.59,16.227,5.662,16.227,5.662l10.119,20.744h20.226Z" transform="translate(-251.94 -189.461)"/><path class="k" d="M270.45,346.42s1.566,4.662,2.6,6.734,4.662,2.6,4.662,2.6" transform="translate(-248.152 -187.827)"/><path class="k" d="M272.61,356.156s8.3-2.337,10.372-1.3a9.179,9.179,0,0,1,3.373,3.614" transform="translate(-247.71 -186.155)"/><path class="k" d="M259.228,349.454c-1.385-1.2-7.228-6.168-7.228-4.024" transform="translate(-251.928 -188.139)"/><path class="k" d="M264.448,361.378c-2.855-2.084-4.036-7.035-5.59-9.637s-1.036-4.927,1.554-2.855c.59.47,1.518,1.325,2.614,2.409" transform="translate(-250.703 -187.486)"/><path class="k" d="M273.029,357.114s-7.674-4.975-9.071-5.7c-.831-.434-4.156-1.036-2.337,1.554a65.971,65.971,0,0,0,7,7.228l2.855,2.325,2.313,1.867" transform="translate(-250.068 -186.884)"/><path class="c" d="M387.619,290.585s25.671,23.864,26.189,26.5-15.552,87.121-15.552,87.121H293.45s19.19-26.707,19.19-30.333,11.143-56.27,11.408-59.125,27.478-14,35.261-17.889S374.392,288.26,387.619,290.585Z" transform="translate(-243.444 -199.381)"/><g class="l" transform="translate(50.006 90.586)"><path class="m" d="M384.878,348.367l-19.528,19s8.975-21.106,11.083-25.3-44.32,16.347-45.38,11.6,14.841-49.62,14.841-49.62l-3.445-1.988c-9.131,4.168-18.166,8.529-18.311,10.167-.265,2.855-11.408,55.487-11.408,59.125s-19.19,30.333-19.19,30.333h86.808Z" transform="translate(-293.432 -287.492)"/></g><path class="k" d="M387.619,290.585s25.671,23.864,26.189,26.5-15.552,87.121-15.552,87.121H293.45s19.19-26.707,19.19-30.333,11.143-56.27,11.408-59.125,27.478-14,35.261-17.889S374.392,288.26,387.619,290.585Z" transform="translate(-243.444 -199.381)"/><ellipse class="h" cx="35.152" cy="33.791" rx="35.152" ry="33.791" transform="translate(90.615 3.251)"/><path class="a" d="M338.756,299.59l-8.806,21.262,9.854-3.891Z" transform="translate(-235.974 -197.412)"/><path class="a" d="M358,284.74,337.26,302.629l.373,24.5L363.2,298.485Z" transform="translate(-234.478 -200.451)"/><path class="f" d="M337.073,235.576s-5.373,7.361-6.734,10.9-2.18,33.237,0,38.959,7.348,9.806,13.613,11.444c0,0,3,17.166.819,23.431s-7.626,18.251-5.445,16.865,34.393-29.02,36.513-33.731c1.084-2.409-.277-19.889-.277-19.889s3.277-15.263,2.723-19.347-4.626-7.361-7.083-5.457a29.164,29.164,0,0,0-4.361,4.361s-5.168-2.988-2.723-7.348,9.264-8.18,6.818-13.9-6.276-7.361-12.047-5.722S340.614,240.479,337.073,235.576Z" transform="translate(-236.17 -210.521)"/><g class="n" transform="translate(92.823 25.019)"><path class="c" d="M345.1,287.678c-6.445-4.819-3.879-5.517-3.879-5.517l-.554-8.192c-3.614.265-4.072-1.349-2.409-4.024s2.012-9.637,2.012-9.637l-3.614,1.855a74.979,74.979,0,0,1,.446-12.336c.385-3.12,3.337-7.674,6.276-11.529-2.723-.241-5.023-1.012-6.252-2.7,0,0-5.373,7.361-6.734,10.9s-2.18,33.237,0,38.959,7.348,9.806,13.613,11.444c0,0,3,17.166.819,23.431s-7.626,18.251-5.445,16.865c.265-.157.976-.711,2-1.554l18.287-42.32a32.525,32.525,0,0,1-14.564-5.65Z" transform="translate(-328.983 -235.528)"/><path class="j" d="M345.1,287.678c-6.445-4.819-3.879-5.517-3.879-5.517l-.554-8.192c-3.614.265-4.072-1.349-2.409-4.024s2.012-9.637,2.012-9.637l-3.614,1.855a74.979,74.979,0,0,1,.446-12.336c.385-3.12,3.337-7.674,6.276-11.529-2.723-.241-5.023-1.012-6.252-2.7,0,0-5.373,7.361-6.734,10.9s-2.18,33.237,0,38.959,7.348,9.806,13.613,11.444c0,0,3,17.166.819,23.431s-7.626,18.251-5.445,16.865c.265-.157.976-.711,2-1.554l18.287-42.32a32.525,32.525,0,0,1-14.564-5.65Z" transform="translate(-328.983 -235.528)"/></g><path class="k" d="M337.073,235.576s-5.373,7.361-6.734,10.9-2.18,33.237,0,38.959,7.348,9.806,13.613,11.444c0,0,3,17.166.819,23.431s-7.626,18.251-5.445,16.865,34.393-29.02,36.513-33.731c1.084-2.409-.277-19.889-.277-19.889s3.277-15.263,2.723-19.347-4.626-7.361-7.083-5.457a29.164,29.164,0,0,0-4.361,4.361s-5.168-2.988-2.723-7.348,9.264-8.18,6.818-13.9-6.276-7.361-12.047-5.722S340.614,240.479,337.073,235.576Z" transform="translate(-236.17 -210.521)"/><path class="k" d="M339.394,253.44l-.542,5.445-.277,1.9s-3.265,6.276-3.265,8.18,6.264,2.723,7.626,1.084" transform="translate(-234.877 -206.857)"/><path class="k" d="M336.44,273.749s6.541,3,10.348-2.409" transform="translate(-234.646 -203.194)"/><path class="h" d="M339.15,274.62s.277,4.626,3.542,4.084c3.915-.651,2.735-6.264,2.735-6.264A10.119,10.119,0,0,1,339.15,274.62Z" transform="translate(-234.091 -202.969)"/><path class="o" d="M344.81,251.865s6.806-.807,9.264,2.409" transform="translate(-232.933 -207.198)"/><path class="o" d="M339.374,251.228s-7.083-1.361-9.264,1.9" transform="translate(-235.941 -207.368)"/><ellipse class="p" cx="1.229" cy="2.313" rx="1.229" ry="2.313" transform="translate(112.142 50.124)"/><ellipse class="p" cx="1.229" cy="2.313" rx="1.229" ry="2.313" transform="translate(97.975 49.305)"/><path class="k" d="M341.41,287.606s10.842,1.554,18.6-6.746" transform="translate(-233.629 -201.245)"/><rect class="a" width="19.805" height="28.069" rx="6.24" transform="translate(131.16 42.868) rotate(5.99)"/><rect class="a" width="9.565" height="23.142" rx="1.16" transform="translate(137.706 39.745) rotate(5.99)"/><path class="p" d="M376.072,219.372a11.276,11.276,0,0,0-12.854-3.951l-7.758,2.638h1.06a36.634,36.634,0,0,1,7.505.783l.3-.108A7.589,7.589,0,0,1,374.6,226.66l-5.108,46.862a1.747,1.747,0,0,0,1.542,1.915h.193a1.747,1.747,0,0,0,1.723-1.554l5.1-46.862A11.167,11.167,0,0,0,376.072,219.372Z" transform="translate(-230.753 -214.771)"/><path class="a" d="M345.244,301.96l-7.674,21.648,10.5-7.035Z" transform="translate(-234.414 -196.927)"/><path class="a" d="M343.94,305.705l.771,19.708,36.309-30.081-4.156-11.673Z" transform="translate(-233.111 -200.672)"/><path class="c" d="M391.041,309.42s-9.637,3.891-11.155,7.228-22.033,78.568-22.033,78.568-.518,4.156,4.662,4.409,36.562,0,36.562,0,2.59-52.632,2.337-61.2-.518-24.093-1.819-25.406" transform="translate(-230.266 -195.4)"/><g class="q" transform="translate(127.572 114.02)"><path class="m" d="M377.3,321.67l-5.806,32.189s7.915-6.337,15.829,0-1.048,2.108-6.855,3.686-7.915,4.228-7.915,4.228,15.3,2.638,19.516,7.915,2.12,10.541-3.156,10.541-27.442-2.638-27.442-2.638Z" transform="translate(-357.095 -306.913)"/></g><path class="k" d="M391.041,309.42s-9.637,3.891-11.155,7.228-22.033,78.568-22.033,78.568-.518,4.156,4.662,4.409,36.562,0,36.562,0,2.59-52.632,2.337-61.2-.518-24.093-1.819-25.406" transform="translate(-230.266 -195.4)"/><path class="f" d="M368.535,363.976s-26.732-22.889-31.2-30.261-5.541-11.926-8.734-15.046-7.866-5.71-11.215-8.276-3.253,2.409-2.168,4.072a24.553,24.553,0,0,0,4.686,4.18l1.867,3.084s-12.047-2.855-14.456-2.7-12.962-.325-14.637,2.084,2.241,2.229,3.349,2.566,4.481,0,6.915.349,8.5,1.9,8.5,1.9-16.13,2.614-18.178,2.976-2.9,2.891-1.4,3.939,6.445.687,6.445.687,7.674,4.7,9.348,5.192,5.517,1.385,5.517,1.385,11.384,4.819,15.167,6.782,11.914,13.685,16.106,19.528,10.083,13.745,13.974,17.793,6.505,7,6.505,7l9.252-23.5Z" transform="translate(-243.924 -195.349)"/><g class="r" transform="translate(47.182 114.322)"><path class="c" d="M361.714,385.74c3.18-3.241,6.324-6.517,7.794-8.047l.506-1.3c-2.494-2.7-17.865-19.275-27.081-27.045-10.047-8.493-17.769-23.563-27.045-27.045s-18.937-1.927-23.2-3.132c-1.674,2.409,2.241,2.229,3.349,2.566s4.481,0,6.915.349,8.5,1.9,8.5,1.9-16.13,2.614-18.178,2.976-2.9,2.891-1.4,3.939,6.445.687,6.445.687,7.674,4.7,9.348,5.192,5.517,1.385,5.517,1.385,11.384,4.819,15.167,6.782,11.914,13.685,16.106,19.528,10.083,13.745,13.974,17.793Z" transform="translate(-291.104 -307.727)"/><path class="j" d="M361.714,385.74c3.18-3.241,6.324-6.517,7.794-8.047l.506-1.3c-2.494-2.7-17.865-19.275-27.081-27.045-10.047-8.493-17.769-23.563-27.045-27.045s-18.937-1.927-23.2-3.132c-1.674,2.409,2.241,2.229,3.349,2.566s4.481,0,6.915.349,8.5,1.9,8.5,1.9-16.13,2.614-18.178,2.976-2.9,2.891-1.4,3.939,6.445.687,6.445.687,7.674,4.7,9.348,5.192,5.517,1.385,5.517,1.385,11.384,4.819,15.167,6.782,11.914,13.685,16.106,19.528,10.083,13.745,13.974,17.793Z" transform="translate(-291.104 -307.727)"/></g><path class="k" d="M368.535,363.976s-26.732-22.889-31.2-30.261-5.541-11.926-8.734-15.046-7.866-5.71-11.215-8.276-3.253,2.409-2.168,4.072a24.553,24.553,0,0,0,4.686,4.18l1.867,3.084s-12.047-2.855-14.456-2.7-12.962-.325-14.637,2.084,2.241,2.229,3.349,2.566,4.481,0,6.915.349,8.5,1.9,8.5,1.9-16.13,2.614-18.178,2.976-2.9,2.891-1.4,3.939,6.445.687,6.445.687,7.674,4.7,9.348,5.192,5.517,1.385,5.517,1.385,11.384,4.819,15.167,6.782,11.914,13.685,16.106,19.528,10.083,13.745,13.974,17.793,6.505,7,6.505,7l9.252-23.5Z" transform="translate(-243.924 -195.349)"/><path class="k" d="M297.1,329.564l8.348-.434,6.794,1.156" transform="translate(-242.697 -191.366)"/><path class="k" d="M302.38,332.51a42.965,42.965,0,0,0,8.433,1" transform="translate(-241.617 -190.674)"/><path class="b" d="M393.23,369.719s-31.117-17.889-32.671-17.889-15.046,28.526-13.251,29.815,13.745,9.083,13.745,9.083h40.188S406,381.128,393.23,369.719Z" transform="translate(-232.455 -186.72)"/><path class="a" d="M359.106,351.344s-14,29.044-13.745,30.346,11.408,8.035,13.492,8.3,17.106-30.864,16.588-31.635-13.48-7.529-13.48-7.529S359.383,349.537,359.106,351.344Z" transform="translate(-232.821 -187.017)"/><path class="f" d="M297.956,318.287l-2.795-.277c-.494.108-.952.229-1.361.361C295.727,318.275,297.956,318.287,297.956,318.287Z" transform="translate(-243.373 -193.642)"/></g><g transform="translate(60.262 240.784)"><path class="a" d="M138.005,284.585H62.786s-6.939,1.2-4.626,15.046,13.89,102.4,13.89,102.4H176.784L153.895,289.4S153.052,283.429,138.005,284.585Z" transform="translate(-57.688 -202.677)"/><path class="h" d="M58.16,299.608C60.473,313.5,72.05,402,72.05,402H85.771c-3.1-20.961-14.589-98.614-16.588-107.613s-5.264-9.782-6.144-9.842H62.81S55.847,285.719,58.16,299.608Z" transform="translate(-57.688 -202.654)"/><path class="c" d="M149.112,283.218s-44.284,16.5-51.222,21.13S84,317.081,84,328.079s6.373,74.1,6.373,74.1H238.257s-18.516-65.124-24.6-78.725c-3.4-7.6-6.806-16.046-12.553-22.25-7.517-8.107-18.552-13.022-29.081-15.89a61.308,61.308,0,0,0-11.914-1.759C157.027,283.314,152.076,282.121,149.112,283.218Z" transform="translate(-52.303 -203.02)"/><g class="s" transform="translate(31.697 79.741)"><path class="m" d="M223.28,395.65c1.409-1.723,2.241-2.9,2.241-2.9L198.079,314.66s7.4,35.875,8.433,39.043,7.4,17.986-13.661,20.576-45.368-1.578-62.257-10.553-21.684-32.707-21.684-32.707l-1.06,18.468L105.44,395.65Z" transform="translate(-79.612 -276.233)"/></g><path class="k" d="M149.112,283.218s-44.284,16.5-51.222,21.13S84,317.081,84,328.079s6.373,74.1,6.373,74.1H238.257s-18.516-65.124-24.6-78.725c-3.4-7.6-6.806-16.046-12.553-22.25-7.517-8.107-18.552-13.022-29.081-15.89a61.308,61.308,0,0,0-11.914-1.759C157.027,283.314,152.076,282.121,149.112,283.218Z" transform="translate(-52.303 -203.02)"/><ellipse class="a" cx="22.154" cy="17.733" rx="22.154" ry="17.733" transform="translate(85.184 77.752)"/><path class="o" d="M122.459,252.771l-1.446-15.384a18.275,18.275,0,0,1,17.07-19.925l13.83-.855a21.142,21.142,0,0,1,22.106,17.468l1.747,9.963" transform="translate(-44.744 -216.567)"/><rect class="t" width="12.494" height="26.731" rx="4.066" transform="translate(124.128 29.611) rotate(-5.143)"/><path class="f" d="M131.81,274.348s2.024,15.661,1.735,17.371,0,12.733,8.1,17.359,16.793,2.614,20.841-3.469.578-31.839.578-31.839S145.122,282.745,131.81,274.348Z" transform="translate(-42.518 -204.86)"/><g class="u" transform="translate(89.292 68.91)"><path class="c" d="M164.191,285.552c-.41-6.409-1.132-11.782-1.132-11.782s-17.937,8.975-31.249.578c0,0,.988,7.638,1.482,12.83C139.869,291.081,150.675,294.093,164.191,285.552Z" transform="translate(-131.81 -273.77)"/><path class="j" d="M164.191,285.552c-.41-6.409-1.132-11.782-1.132-11.782s-17.937,8.975-31.249.578c0,0,.988,7.638,1.482,12.83C139.869,291.081,150.675,294.093,164.191,285.552Z" transform="translate(-131.81 -273.77)"/></g><path class="k" d="M131.81,274.348s2.024,15.661,1.735,17.371,0,12.733,8.1,17.359,16.793,2.614,20.841-3.469.578-31.839.578-31.839S145.122,282.745,131.81,274.348Z" transform="translate(-42.518 -204.86)"/><rect class="f" width="48.331" height="74.388" rx="15.95" transform="translate(76.722 5.982) rotate(-6.66)"/><g class="v" transform="translate(76.722 0.376)"><path class="c" d="M143.462,293.738c-6.638-7.565-11.167-60.378-9.637-66.064,1.1-4.024,10.071-7.288,15.456-8.915l-9.878,1.2a18.467,18.467,0,0,0-16.191,20.479l4.349,37.212a18.431,18.431,0,0,0,15.9,16.082Z" transform="translate(-121.026 -216.495)"/><path class="j" d="M143.462,293.738c-6.638-7.565-11.167-60.378-9.637-66.064,1.1-4.024,10.071-7.288,15.456-8.915l-9.878,1.2a18.467,18.467,0,0,0-16.191,20.479l4.349,37.212a18.431,18.431,0,0,0,15.9,16.082Z" transform="translate(-121.026 -216.495)"/></g><rect class="k" width="48.331" height="74.388" rx="15.95" transform="translate(76.722 5.982) rotate(-6.66)"/><path class="h" d="M175.337,270.545l-.94-8.119c-.2,3.53-1.06,7.891-4.072,7.553-5.023-.554-4.638-5.493-7.818-7.529s-10.131-1.2-15.335.867-4.06,9.264-7.818,11.866-7.818-3.469-7.818-3.469l-4.048-24.888s4.048-4.927,6.023-6.951-1.747-2.6-3.192-5.493,2.9-6.373,7.818-10.131,9.264,1.2,13.251,1.2,6.662-1.735,10.131-3.759l.193-.084a19.829,19.829,0,0,0-12.637-2.759l-8.336.976a19.949,19.949,0,0,0-17.4,22.118l3.987,34.2a19.973,19.973,0,0,0,22.13,17.528l8.336-.976a19.961,19.961,0,0,0,17.54-22.154Z" transform="translate(-44.279 -216.128)"/><path class="e" d="M144.3,259.169s4.337,4.048,12.733-.289" transform="translate(-39.962 -207.908)"/><path class="k" d="M153.228,239.9s1.2,11.866,1.2,14.179-4.349,6.084-8.433.867" transform="translate(-39.614 -211.792)"/><path class="o" d="M149.491,238.572s-5.782-5.505-13.6,1.446" transform="translate(-41.683 -212.487)"/><path class="o" d="M153.19,237.805s5.493-3.759,10.131-.578" transform="translate(-38.142 -212.601)"/><path class="p" d="M145.442,244.853c0,1.277-.578,2.313-1.3,2.313s-1.3-1.036-1.3-2.313.578-2.313,1.3-2.313S145.442,243.576,145.442,244.853Z" transform="translate(-40.261 -211.252)"/><ellipse class="p" cx="1.301" cy="2.313" rx="1.301" ry="2.313" transform="translate(119.095 30.999)"/><rect class="a" width="12.444" height="26.623" rx="4.05" transform="translate(71.538 34.43) rotate(-6.87)"/><path class="f" d="M214.782,377.287c-7.228-1.735-17.07-1.2-22.889-1.446s-42.838-3.482-51.512-6.023S118.1,364.9,118.1,364.9l-3.771-24.322c-16.13-6.361-25.479.3-28.755,3.457,1.867,21.407,4.445,46.91,4.445,46.91H220.059l3.7-.289S222.022,378.974,214.782,377.287Z" transform="translate(-51.982 -191.729)"/><g class="w" transform="translate(33.588 146.197)"><path class="c" d="M98.412,378.156c-4.626-2.566-8.433-10.5-11.252-17.986,1.361,14.323,2.554,26.165,2.554,26.165H212.253c4.349-3.241,6.939-5.541,6.939-5.541S107.916,383.432,98.412,378.156Z" transform="translate(-85.245 -333.374)"/><path class="j" d="M98.412,378.156c-4.626-2.566-8.433-10.5-11.252-17.986,1.361,14.323,2.554,26.165,2.554,26.165H212.253c4.349-3.241,6.939-5.541,6.939-5.541S107.916,383.432,98.412,378.156Z" transform="translate(-85.245 -333.374)"/></g><path class="k" d="M214.782,377.287c-7.228-1.735-17.07-1.2-22.889-1.446s-42.838-3.482-51.512-6.023S118.1,364.9,118.1,364.9l-3.771-24.322c-16.13-6.361-25.479.3-28.755,3.457,1.867,21.407,4.445,46.91,4.445,46.91H220.059l3.7-.289S222.022,378.974,214.782,377.287Z" transform="translate(-51.982 -191.729)"/><path class="k" d="M114.938,360.27s-9.975.241-13.818,7.577" transform="translate(-48.799 -187.156)"/><line class="k" x1="2.024" y1="21.407" transform="translate(60.344 127.384)"/></g><g transform="translate(57.181 416.042)"><path class="a" d="M84.467,379.976H77.842a2.012,2.012,0,0,1-2.012-2.012V364.472a2.012,2.012,0,0,1,2.012-2.012h6.626a3.277,3.277,0,0,1,3.277,3.277V376.7a3.277,3.277,0,0,1-3.277,3.277Zm-5.06-2.855h4.819V365.315H79.408Z" transform="translate(-50.893 -361.966)"/><path class="a" d="M63.07,362.05h21.6v13.577a7.782,7.782,0,0,1-7.782,7.782H70.864a7.782,7.782,0,0,1-7.782-7.782V362.05Z" transform="translate(-53.505 -362.05)"/><path class="a" d="M87.873,381.763H60.912L55.13,378.39H93.643Z" transform="translate(-55.13 -358.706)"/><path class="a" d="M314.133,379.976h-6.6a2.012,2.012,0,0,1-2.012-2.012V364.472a2.012,2.012,0,0,1,2.012-2.012h6.6a3.277,3.277,0,0,1,3.277,3.277V376.7a3.277,3.277,0,0,1-3.277,3.277Zm-5.06-2.855h4.819V365.315h-4.819Z" transform="translate(-3.884 -361.966)"/><path class="a" d="M292.76,362.05h21.684v13.577a7.782,7.782,0,0,1-7.782,7.782h-6.023a7.782,7.782,0,0,1-7.782-7.782V362.05Z" transform="translate(-6.495 -362.05)"/><path class="a" d="M317.563,381.763H290.6l-5.782-3.373h38.513Z" transform="translate(-8.12 -358.706)"/></g><g transform="translate(203.764 311.694)"><line class="x" y1="3.084" x2="25.081" transform="translate(26.576 39.549)"/><path class="y" d="M217.833,320.89a4.048,4.048,0,0,1-2.59-7.228l42.428-35.1a4.051,4.051,0,1,1,5.168,6.24l-42.428,35.1A4.035,4.035,0,0,1,217.833,320.89Z" transform="translate(-169.26 -274.98)"/><path class="y" d="M256.087,277.2a4.1,4.1,0,0,0-4.253,3.457C248.98,299.066,234.97,386.922,236.03,388.3s14.649,11.95,14.649,11.95-3.855-9.637-3.855-13.492c0-3.373,10.758-85.688,13.143-104.963a4.1,4.1,0,0,0-3.879-4.59Z" transform="translate(-164.701 -275.069)"/><path class="h" d="M196.121,297.982a10.842,10.842,0,1,1-15.179-1.747,10.842,10.842,0,0,1,15.179,1.747Z" transform="translate(-176.809 -271.648)"/><path class="a" d="M208.853,328.865l-2.674,2.12a2.409,2.409,0,0,1-3.168-.169l-16.588-16.359a6.975,6.975,0,0,1,.566-10.42h0a6.963,6.963,0,0,1,10.276,1.831l12.143,19.877a2.409,2.409,0,0,1-.554,3.12Z" transform="translate(-175.266 -269.884)"/><path class="p" d="M198.69,308.951a8.119,8.119,0,0,0-9.529,7.565,2.715,2.715,0,0,0,0,.313l3.12,3.084a5.807,5.807,0,0,1,9.023-7.144l-2.289-3.747a2.946,2.946,0,0,1-.325-.072Z" transform="translate(-174.283 -268.595)"/><path class="a" d="M205.677,328.006h0a2.409,2.409,0,0,1-3.361-.385l-1.229-1.662a2.409,2.409,0,0,1,.386-3.361h0a2.409,2.409,0,0,1,3.361.386l1.277,1.6a2.409,2.409,0,0,1-.434,3.421Z" transform="translate(-171.945 -265.881)"/><path class="p" d="M264,382.808H224.339a2.409,2.409,0,0,1-2.409-2.349h0a2.409,2.409,0,0,1,2.409-2.409H264a2.409,2.409,0,0,1,2.349,2.409h0A2.409,2.409,0,0,1,264,382.808Z" transform="translate(-167.575 -254.427)"/><circle class="p" cx="7.204" cy="7.204" r="7.204" transform="translate(42.212 33.55)"/><circle class="p" cx="7.204" cy="7.204" r="7.204" transform="translate(83.532)"/><line class="x" y1="3.084" x2="25.069" transform="translate(224.562 39.549)"/><path class="y" d="M382.17,320.89a4.048,4.048,0,0,1-2.578-7.228l42.428-35.1a4.051,4.051,0,1,1,5.168,6.24L384.76,319.9a4.048,4.048,0,0,1-2.59.988Z" transform="translate(-135.623 -274.98)"/><path class="y" d="M420.417,277.2a4.1,4.1,0,0,0-4.253,3.457C413.31,299.066,399.3,386.922,400.36,388.3s14.649,11.95,14.649,11.95-3.855-9.637-3.855-13.492c0-3.373,10.758-85.688,13.131-104.963a4.072,4.072,0,0,0-3.867-4.59Z" transform="translate(-131.068 -275.069)"/><circle class="h" cx="10.806" cy="10.806" r="10.806" transform="matrix(0.573, -0.82, 0.82, 0.573, 193.772, 35.696)"/><path class="a" d="M373.163,328.865l-2.674,2.12a2.409,2.409,0,0,1-3.168-.169l-16.588-16.359a6.975,6.975,0,0,1,.566-10.42h0a6.963,6.963,0,0,1,10.276,1.831l12.143,19.877A2.409,2.409,0,0,1,373.163,328.865Z" transform="translate(-141.637 -269.884)"/><path class="p" d="M363.04,308.951a8.119,8.119,0,0,0-9.529,7.565,2.709,2.709,0,0,0,0,.313l3.12,3.048a5.806,5.806,0,0,1,9.011-7.144l-2.289-3.747a2.95,2.95,0,0,1-.313-.036Z" transform="translate(-140.646 -268.595)"/><path class="a" d="M370.035,328h0a2.409,2.409,0,0,1-3.361-.385l-1.277-1.6a2.409,2.409,0,0,1,.385-3.361h0a2.409,2.409,0,0,1,3.361.385l1.277,1.6A2.409,2.409,0,0,1,370.035,328Z" transform="translate(-138.317 -265.871)"/><path class="p" d="M428.335,382.808H388.689a2.409,2.409,0,0,1-2.409-2.349h0a2.409,2.409,0,0,1,2.409-2.409h39.646a2.409,2.409,0,0,1,2.409,2.409h0A2.409,2.409,0,0,1,428.335,382.808Z" transform="translate(-133.938 -254.427)"/><circle class="p" cx="7.204" cy="7.204" r="7.204" transform="translate(240.199 33.55)"/><circle class="p" cx="7.204" cy="7.204" r="7.204" transform="translate(281.519)"/></g><g transform="translate(152.964 379.938)"><path class="h" d="M263.681,332.08h-81.3L168.5,387.88h81.291Z" transform="translate(-127.71 -332.08)"/><rect class="h" width="121.238" height="3.963" transform="translate(0 55.8)"/><rect class="a" width="81.303" height="3.963" transform="translate(40.79 55.8)"/><path class="a" d="M264.419,332.08H183.128l-13.878,55.8h81.291Z" transform="translate(-127.557 -332.08)"/></g><g transform="translate(45.11 439.569)"><rect class="h" width="497.033" height="8.674"/></g></g></svg>