<svg xmlns="http://www.w3.org/2000/svg" viewBox="0 0 69.059 51.546">
    <g transform="translate(0 0.002)">
        <path
            d="M165.225,188.652c-.133-.142-.208-.224-.285-.3l-2.505-2.513-.12-.121c-.183-.184-.183-.184,0-.368l3-3.016.071-.072a.109.109,0,0,1,.151-.03.118.118,0,0,1,.023.022c.03.031.065.063.1.1l2.979,2.991c.041.04.081.079.119.123a.1.1,0,0,1,0,.143l0,.006c-.063.066-.126.13-.183.2l-2.526,2.538c-.079.08-.156.16-.23.237.015.091.081.072.132.072H170.5a.151.151,0,0,0,.168-.128c.054-.207.1-.417.162-.622a15.545,15.545,0,0,1,13.414-11.273,14.775,14.775,0,0,1,2.789-.033,15.629,15.629,0,0,1,14.311,14.311c.046.52.054,1.037.054,1.557v2.983a.113.113,0,0,0,.1.127h.024l.7.036a15.786,15.786,0,0,1,9.277,3.562,16.112,16.112,0,0,1,5.707,9.178A15.518,15.518,0,0,1,217.54,213a16.326,16.326,0,0,1-11.182,14.309,15.674,15.674,0,0,1-3.686.734c-.428.033-.852.051-1.286.051H196.84c-.157,0-.183-.023-.183-.169V202.434c0-.218.011-.227.232-.227h4.277a.877.877,0,0,1,.135.009.088.088,0,0,1,.083.089v20.752c0,.295,0,.295.3.283s.628-.031.94-.069a11.5,11.5,0,0,0,9.944-9.036,11.013,11.013,0,0,0,.25-2.938,11.561,11.561,0,0,0-9.019-10.7,10.394,10.394,0,0,0-2.3-.258H190.36c-.472,0-.42.044-.42-.41v-4.065c0-.295,0-.295.295-.295h6.3a.117.117,0,0,0,.122-.112v-3.139a11.452,11.452,0,0,0-.06-1.219,10.41,10.41,0,0,0-.917-3.415,10.783,10.783,0,0,0-6.52-5.847,10.2,10.2,0,0,0-4.118-.5,10.661,10.661,0,0,0-5.955,2.351,10.862,10.862,0,0,0-3.387,4.6c-.029.074-.059.146-.083.222s0,.128.09.132.2,0,.3,0h6.978c.435,0,.412-.056.412.424v3.968c0,.393.02.368-.368.368H164.269a11.163,11.163,0,0,0-3.833.65,10.922,10.922,0,0,0-6.937,8.027,9.836,9.836,0,0,0-.217,2.02c0,.723-.011,1.447,0,2.17a10.222,10.222,0,0,0,1.2,4.61,10.78,10.78,0,0,0,6.684,5.5c.056.016.109.036.161.047a.146.146,0,0,1,.126.165v4.411c0,.295.032.33-.313.26a15.694,15.694,0,0,1-12.613-15.357v-1.652a15.437,15.437,0,0,1,4.828-11.25,15.193,15.193,0,0,1,7.781-4.057,14.832,14.832,0,0,1,2.91-.288Z"
            transform="translate(-148.53 -176.55)" fill="#1f3366" />
        <path
            d="M371.915,393.476h-5.69c-.413,0-.38.038-.38-.384v-4c0-.417-.026-.367.393-.367h10.974a2.1,2.1,0,0,0,1.179-.336,1.9,1.9,0,0,0,.918-1.537c.02-.326.011-.655,0-.983,0-.11-.03-.138-.14-.143s-.183,0-.27,0h-3.672a10.123,10.123,0,0,1-2.37-.254,9.155,9.155,0,0,1-6.719-6.684,8.673,8.673,0,0,1-.242-2.89,9.035,9.035,0,0,1,4.428-7.159,8.563,8.563,0,0,1,3.5-1.215,9.107,9.107,0,0,1,9.936,6.766,8.943,8.943,0,0,1,.295,2.276V386.7a6.811,6.811,0,0,1-4.273,6.3,6.655,6.655,0,0,1-2.528.491h-5.353Zm4.953-12.533h2.359a.106.106,0,0,0,.106-.107v-4.168a5.049,5.049,0,0,0-.063-.808,4.357,4.357,0,0,0-5.013-3.587c-.077.013-.154.027-.231.044a4.372,4.372,0,0,0,.855,8.635h1.98Z"
            transform="translate(-344.485 -348.693)" fill="#1f3366" />
        <path
            d="M468.4,444.494v5.456a13.22,13.22,0,0,1-.961,4.987,13.4,13.4,0,0,1-9.2,7.995,13.739,13.739,0,0,1-3.2.383h-2.862c-.128,0-.149-.031-.154-.168v-4.241c0-.368-.032-.368.368-.368h2.792a8.221,8.221,0,0,0,5.013-1.7,8.483,8.483,0,0,0,3.342-5.456,9.113,9.113,0,0,0,.128-1.619V437.873c0-.1.029-.148.166-.153h4.41c.122,0,.148.034.156.166v.272Z"
            transform="translate(-422.194 -412.052)" fill="#1f3366" />
        <path
            d="M303.645,383.027v12.436c0,.472.058.423-.4.425h-4.177c-.127,0-.146-.027-.15-.165V370.577c0-.5-.054-.442.455-.444h3.806c.542,0,.47-.069.472.459v5.387Z"
            transform="translate(-284.133 -351.105)" fill="#1f3366" />
        <path
            d="M416.7,680.706v-.713c0-.112.041-.161.138-.138a.688.688,0,0,0,.446-.023.321.321,0,0,1,.295.036.24.24,0,0,0,.3,0,.391.391,0,0,1,.159-.043.343.343,0,0,1,.432.35c.011.427,0,.857,0,1.286,0,.087-.054.112-.13.116-.17,0-.2-.017-.2-.184v-1.05c0-.144-.061-.209-.164-.211a.2.2,0,0,0-.213.19v1.066a.2.2,0,0,1-.043.156.338.338,0,0,1-.259,0c-.046-.029-.041-.078-.041-.121v-1.151a.142.142,0,0,0-.129-.135.2.2,0,0,0-.217.119,1.347,1.347,0,0,0-.02.235v.918c0,.135-.028.161-.152.167s-.183-.021-.183-.165V680.7Z"
            transform="translate(-390.343 -630.35)" fill="#1f3366" />
        <path
            d="M358.339,675.522v1.015c0,.12-.051.173-.163.151a.83.83,0,0,0-.386.014.367.367,0,0,1-.477-.2.359.359,0,0,1-.025-.174c-.011-.326-.013-.655,0-.983s.183-.436.491-.4a.88.88,0,0,1,.1.026c.066.011.113-.012.116-.082v-.339c0-.112.032-.158.161-.158s.173.031.174.147v.983Zm-.714.3h0v.436a.141.141,0,0,0,.131.13.206.206,0,0,0,.233-.147,4.772,4.772,0,0,0,0-.838.2.2,0,0,0-.23-.149.16.16,0,0,0-.138.163C357.62,675.554,357.626,675.69,357.626,675.826Z"
            transform="translate(-336.763 -625.46)" fill="#1f3366" />
        <path
            d="M299.779,650.224v.368c0,.1,0,.2.127.245.061.021.059.085.045.142a.112.112,0,0,1-.1.083.326.326,0,0,1-.288-.049.146.146,0,0,0-.183,0,.507.507,0,0,1-.368.057.3.3,0,0,1-.284-.286c-.046-.514,0-.634.456-.734a.72.72,0,0,0,.1-.031.223.223,0,0,0,.137-.283.229.229,0,0,0-.019-.038.183.183,0,0,0-.173-.081.16.16,0,0,0-.143.074.491.491,0,0,0-.034.129c-.034.138-.079.173-.2.146a.108.108,0,0,1-.093-.083.433.433,0,0,1,.272-.548.44.44,0,0,1,.163-.023,1.63,1.63,0,0,1,.17,0,.377.377,0,0,1,.393.357.228.228,0,0,1,0,.051c.011.169,0,.338,0,.507Zm-.347.242c0-.159,0-.2-.05-.207a.279.279,0,0,0-.295.167.668.668,0,0,0-.015.2.167.167,0,0,0,.168.165h0a.183.183,0,0,0,.183-.156,1.127,1.127,0,0,0,0-.163Z"
            transform="translate(-283.955 -602.843)" fill="#1f3366" />
        <path
            d="M349.9,650.522v-.168a.331.331,0,0,1,.229-.3c.128-.045.255-.082.382-.128.089-.033.118-.1.1-.22a.185.185,0,0,0-.148-.16.2.2,0,0,0-.222.109c-.011.031,0,.066-.019.1-.029.125-.1.168-.2.135a.116.116,0,0,1-.072-.061.491.491,0,0,1,.082-.448.37.37,0,0,1,.161-.112.863.863,0,0,1,.491,0,.33.33,0,0,1,.24.26,1.287,1.287,0,0,1,.028.266v.776c0,.1.02.184.127.2.05.014.061.063.054.11a.122.122,0,0,1-.1.114.323.323,0,0,1-.288-.048.13.13,0,0,0-.183,0,.491.491,0,0,1-.295.065.34.34,0,0,1-.366-.314.159.159,0,0,1,0-.031,1.063,1.063,0,0,1,0-.137Zm.7-.329c-.285.017-.387.116-.368.346a.185.185,0,0,0,.165.184.211.211,0,0,0,.217-.163.787.787,0,0,0-.022-.367Z"
            transform="translate(-330.097 -602.77)" fill="#1f3366" />
        <path
            d="M341.96,681.129v.745a.1.1,0,0,1-.1.1h-.014a.294.294,0,0,1-.132,0,.213.213,0,0,0-.218,0,.622.622,0,0,1-.161.042.33.33,0,0,1-.4-.238.382.382,0,0,1-.009-.1c-.013-.438,0-.885,0-1.32,0-.072.052-.091.113-.1.183-.015.209.016.213.2v1.081a.144.144,0,0,0,.124.138.184.184,0,0,0,.215-.117,1.172,1.172,0,0,0,.018-.235v-.949c0-.088.05-.117.127-.123h.067c.124,0,.148.029.15.167v.713Z"
            transform="translate(-322.013 -630.751)" fill="#1f3366" />
        <path
            d="M368.38,650.161v-.745c0-.077.061-.14.13-.113a1.036,1.036,0,0,0,.491-.019c.285-.031.427.085.437.378.014.406,0,.812,0,1.219,0,.129-.032.152-.163.154s-.174-.021-.183-.184v-1.116a.155.155,0,0,0-.161-.141.184.184,0,0,0-.2.14,1.729,1.729,0,0,0-.011.237v.918c0,.054,0,.117-.074.132s-.159.036-.22-.027a.185.185,0,0,1-.034-.123v-.713Z"
            transform="translate(-346.772 -602.817)" fill="#1f3366" />
        <path
            d="M384.172,680.973v.368a.184.184,0,0,0,.169.184.2.2,0,0,0,.2-.184v-.1c.018-.144.083-.184.222-.154a.109.109,0,0,1,.087.089.763.763,0,0,1-.018.368.428.428,0,0,1-.3.295.641.641,0,0,1-.393-.011.393.393,0,0,1-.3-.368q-.021-.491,0-.983a.382.382,0,0,1,.33-.368.777.777,0,0,1,.233-.027.46.46,0,0,1,.47.448.444.444,0,0,1-.024.156c-.016.068-.072.083-.129.086s-.142,0-.165-.078c-.016-.053-.011-.112-.025-.166a.169.169,0,0,0-.184-.123.166.166,0,0,0-.166.14c-.018.145-.022.295-.031.436Z"
            transform="translate(-360.699 -630.595)" fill="#1f3366" />
        <path
            d="M298.857,680.938V680.5a.438.438,0,0,1,.414-.453.377.377,0,0,1,.066,0c.332,0,.561.121.55.515,0,.143-.075.2-.214.184a.1.1,0,0,1-.092-.085.786.786,0,0,0-.027-.166.151.151,0,0,0-.15-.112.183.183,0,0,0-.183.115.307.307,0,0,0-.022.1v.713a.222.222,0,0,0,.022.1.185.185,0,0,0,.159.107.163.163,0,0,0,.161-.1.752.752,0,0,0,.034-.2c.016-.137.061-.169.2-.152a.118.118,0,0,1,.116.105.764.764,0,0,1,0,.134.484.484,0,0,1-.214.467.6.6,0,0,1-.61,0,.393.393,0,0,1-.2-.333v-.5Z"
            transform="translate(-284.082 -630.56)" fill="#1f3366" />
        <path
            d="M325.414,680.767v.438a.44.44,0,0,1-.295.415.59.59,0,0,1-.6-.083.41.41,0,0,1-.15-.324c0-.295-.013-.59,0-.878a.461.461,0,0,1,.462-.46h.022a.476.476,0,0,1,.546.4.08.08,0,0,1,0,.022,3.4,3.4,0,0,1,0,.47Zm-.712-.017h0v.436a.165.165,0,0,0,.178.151h0a.183.183,0,0,0,.183-.184v-.78a.2.2,0,0,0-.213-.17.184.184,0,0,0-.161.184c.011.115.016.238.016.363Z"
            transform="translate(-307.08 -630.401)" fill="#1f3366" />
        <path
            d="M401.121,680.762v.437a.46.46,0,0,1-.463.458h-.018a.469.469,0,0,1-.546-.379l0-.04a4.085,4.085,0,0,1,0-.943.463.463,0,0,1,.491-.429h.013a.474.474,0,0,1,.52.424v.032c.011.145,0,.295,0,.438Zm-.334,0h0v-.4a.169.169,0,0,0-.174-.166H400.6a.168.168,0,0,0-.183.152h0a3.649,3.649,0,0,0,0,.841.167.167,0,0,0,.183.146.171.171,0,0,0,.183-.162h0c.006-.137,0-.27,0-.406Z"
            transform="translate(-375.34 -630.397)" fill="#1f3366" />
        <path
            d="M333.739,650.449a.407.407,0,0,0,.127-.28c.041-.209.083-.421.128-.628a.2.2,0,0,1,.258-.093l.016.008c.041.034.028.079.02.123l-.259,1.221c-.012.066-.027.132-.041.2-.039.163-.059.184-.231.184s-.183-.016-.213-.152q-.15-.711-.29-1.42c-.03-.147,0-.184.157-.167.109,0,.143.029.163.131C333.629,649.843,333.68,650.135,333.739,650.449Z"
            transform="translate(-315.088 -602.953)" fill="#1f3366" />
        <path
            d="M317.17,650.381v-.734c0-.1.055-.142.154-.128a.22.22,0,0,1,.124.042.119.119,0,0,0,.15.011c.368-.145.55-.021.55.38a.866.866,0,0,1,0,.1.184.184,0,0,1-.226.128.216.216,0,0,1-.032-.012.088.088,0,0,1-.039-.051v-.135a.133.133,0,0,0-.107-.15.183.183,0,0,0-.206.132.719.719,0,0,0-.022.2v.813a1.364,1.364,0,0,1,0,.2.106.106,0,0,1-.063.07c-.165.055-.263,0-.265-.183v-.678Z"
            transform="translate(-300.595 -603.029)" fill="#1f3366" />
        <path
            d="M315.084,675.537v-.974c0-.054,0-.117.066-.14a.3.3,0,0,1,.228.013.091.091,0,0,1,.035.052.192.192,0,0,1,0,.067v2.02a.114.114,0,0,1-.052.115.334.334,0,0,1-.255-.016.155.155,0,0,1-.034-.125Z"
            transform="translate(-298.701 -625.475)" fill="#1f3366" />
        <path
            d="M374.284,693.764v.1a.1.1,0,0,1-.087.107h-.217a.1.1,0,0,1-.1-.091.051.051,0,0,1,0-.018v-.034c-.011-.251.015-.275.256-.264.116,0,.144.029.148.135v.068Z"
            transform="translate(-351.731 -642.746)" fill="#1f3366" />
        <path
            d="M360.8,683.763v-.4a.16.16,0,0,1,.138-.163.2.2,0,0,1,.23.149,4.778,4.778,0,0,1,0,.838c0,.1-.132.16-.234.147a.142.142,0,0,1-.131-.13v-.437Z"
            transform="translate(-339.936 -633.397)" fill="#1f3366" />
        <path
            d="M302.726,659.23a1.6,1.6,0,0,1,0,.166.184.184,0,0,1-.183.156.168.168,0,0,1-.172-.162h0a.667.667,0,0,1,.014-.2.28.28,0,0,1,.295-.167C302.726,659.033,302.732,659.068,302.726,659.23Z"
            transform="translate(-287.249 -611.605)" fill="#1f3366" />
        <path
            d="M353.652,659.05a.787.787,0,0,1,.02.368.209.209,0,0,1-.217.163.185.185,0,0,1-.164-.184C353.266,659.166,353.369,659.07,353.652,659.05Z"
            transform="translate(-333.162 -611.628)" fill="#1f3366" />
        <path
            d="M327.89,683.743v-.368a.185.185,0,0,1,.161-.184.2.2,0,0,1,.213.171v.767a.184.184,0,0,1-.17.2h-.013a.166.166,0,0,1-.183-.146v-.44Z"
            transform="translate(-310.261 -633.397)" fill="#1f3366" />
        <path
            d="M403.852,683.755v.4a.172.172,0,0,1-.177.167h-.006a.168.168,0,0,1-.183-.147,3.637,3.637,0,0,1,0-.84.168.168,0,0,1,.183-.154h0a.171.171,0,0,1,.183.157Z"
            transform="translate(-378.406 -633.389)" fill="#1f3366" />
    </g>
</svg>