<svg xmlns="http://www.w3.org/2000/svg" viewBox="0 0 356.447 350"><defs><style>.a,.g{fill:#76c6c8;}.b,.c,.d,.j,.o{fill:#fff;}.b{opacity:0.7;}.c{opacity:0.5;}.e,.h,.i,.k,.p,.q{fill:none;}.e,.g,.i,.k,.o{stroke:#263238;}.e,.h,.i,.o,.p,.q{stroke-linecap:round;stroke-linejoin:round;}.f{fill:#263238;}.g,.k{stroke-miterlimit:10;}.h{stroke:#76c6c8;}.i{stroke-width:1.177px;}.j{opacity:0.4;}.l{opacity:0.3;}.m{opacity:0.1;}.n{opacity:0.05;}.p,.q{stroke:#fff;}.p{opacity:0.8;}</style></defs><g transform="translate(-34.414 -43.43)"><g transform="translate(38.763 50.898)"><path class="a" d="M283.026,61.9C264.891,72.275,252.1,89.72,236.6,103.724a149.352,149.352,0,0,1-68.085,34.907c-20.778,4.5-42.487,4.563-62.508,11.636C66.944,163.972,40.19,204.647,39.517,246s22.856,81.449,57.438,104.122a137.666,137.666,0,0,0,38.231,17.412c25.432,7.156,52.4,6.84,78.682,4.106,45.4-4.729,92.985-30.51,121.6-66.855a260.754,260.754,0,0,0,32.114-52.734,263.009,263.009,0,0,0,23.7-98.2c1.205-29.089,0-61.336-23.08-82.538S310.079,46.419,283.026,61.9Z" transform="translate(-39.503 -52.415)"/><path class="b" d="M283.026,61.9C264.891,72.275,252.1,89.72,236.6,103.724a149.352,149.352,0,0,1-68.085,34.907c-20.778,4.5-42.487,4.563-62.508,11.636C66.944,163.972,40.19,204.647,39.517,246s22.856,81.449,57.438,104.122a137.666,137.666,0,0,0,38.231,17.412c25.432,7.156,52.4,6.84,78.682,4.106,45.4-4.729,92.985-30.51,121.6-66.855a260.754,260.754,0,0,0,32.114-52.734,263.009,263.009,0,0,0,23.7-98.2c1.205-29.089,0-61.336-23.08-82.538S310.079,46.419,283.026,61.9Z" transform="translate(-39.503 -52.415)"/></g><g transform="translate(85.527 313.144)"><ellipse class="a" cx="149.044" cy="40.143" rx="149.044" ry="40.143"/><ellipse class="c" cx="149.044" cy="40.143" rx="149.044" ry="40.143"/></g><g transform="translate(70.077 43.43)"><rect class="d" width="190.101" height="113.107" rx="8.95" transform="translate(0 20.67)"/><path class="a" d="M267.281,75.73v2.942H77.18V75.73a7.48,7.48,0,0,1,7.439-7.48H259.876a7.43,7.43,0,0,1,7.405,7.48Z" transform="translate(-77.18 -47.622)"/><rect class="e" width="190.101" height="113.107" rx="8.95" transform="translate(0 20.67)"/><path class="e" d="M267.281,75.73v2.942H77.18V75.73a7.48,7.48,0,0,1,7.439-7.48H259.876a7.43,7.43,0,0,1,7.405,7.48Z" transform="translate(-77.18 -47.622)"/><path class="f" d="M102.1,74.155a1.9,1.9,0,1,1-1.9-1.895,1.9,1.9,0,0,1,1.9,1.895Z" transform="translate(-80.745 -48.299)"/><path class="f" d="M114.047,74.155a1.9,1.9,0,1,1-1.9-1.895A1.9,1.9,0,0,1,114.047,74.155Z" transform="translate(-82.763 -48.299)"/><circle class="f" cx="1.903" cy="1.903" r="1.903" transform="translate(37.409 23.953)"/><rect class="e" width="59.882" height="31.99" rx="3.69" transform="translate(11.27 39.287)"/><line class="e" x2="51.92" transform="translate(14.794 67.254)"/><rect class="g" width="6.026" height="6.026" transform="translate(18.65 61.145)"/><rect class="g" width="6.026" height="14.029" transform="translate(27.468 53.225)"/><rect class="g" width="6.026" height="11.76" transform="translate(37.4 55.635)"/><rect class="g" width="6.026" height="23.063" transform="translate(47.839 43.925)"/><rect class="g" width="6.026" height="23.063" transform="translate(58.27 44.107)"/><circle class="g" cx="16.847" cy="16.847" r="16.847" transform="translate(128.549 39.237)"/><path class="f" d="M252.407,118.929v1.729h-2.826v-1.729a5.136,5.136,0,0,1-3.923-5.236v-.781l3.2-.349v.831c0,1.6.831,2.576,2.136,2.576a1.97,1.97,0,0,0,2.128-2.1c0-1.538-1.438-2.859-3.133-4.264-2.011-1.662-4.014-3.64-4.014-6.433s1.313-4.679,3.607-5.244V96.19h2.826v1.72c2.319.54,3.665,2.493,3.665,5.278v.565l-3.2.341v-.582c0-1.662-.657-2.576-1.82-2.576s-1.82.723-1.82,2.1c0,1.538,1.479,2.826,3.142,4.264,1.978,1.662,4.014,3.64,4.014,6.433a5.111,5.111,0,0,1-3.981,5.194Z" transform="translate(-105.632 -52.34)"/><line class="e" x2="4.92" transform="translate(9.874 87.616)"/><line class="e" x2="4.92" transform="translate(9.874 97.124)"/><line class="e" x2="4.92" transform="translate(9.874 106.641)"/><line class="e" x2="4.92" transform="translate(9.874 116.149)"/><line class="e" y1="3.823" transform="translate(25.64 119.506)"/><line class="e" y1="3.823" transform="translate(33.436 119.506)"/><line class="e" y1="3.823" transform="translate(41.232 119.506)"/><line class="e" y1="3.823" transform="translate(49.036 119.506)"/><line class="e" y1="3.823" transform="translate(56.832 119.506)"/><line class="e" y1="3.823" transform="translate(64.628 119.506)"/><line class="e" y1="3.823" transform="translate(72.424 119.506)"/><line class="e" y1="3.823" transform="translate(80.228 119.506)"/><line class="e" y1="3.823" transform="translate(88.024 119.506)"/><line class="e" y1="3.823" transform="translate(95.819 119.506)"/><line class="e" y1="3.823" transform="translate(103.615 119.506)"/><line class="e" y1="3.823" transform="translate(111.42 119.506)"/><line class="e" y1="3.823" transform="translate(119.215 119.506)"/><line class="e" y1="3.823" transform="translate(127.011 119.506)"/><line class="e" y1="3.823" transform="translate(134.807 119.506)"/><line class="e" y1="3.823" transform="translate(142.312 119.506)"/><line class="e" y1="3.823" transform="translate(149.817 119.506)"/><line class="e" y1="3.823" transform="translate(157.314 119.506)"/><path class="h" d="M256.337,140.919v36.951c0,2.535-2.576,4.579-5.751,4.579H94.818a6.167,6.167,0,0,1-4.987-2.252A3.931,3.931,0,0,1,89,177.871V140.919c0-2.493,2.576-4.579,5.751-4.579H250.586C253.761,136.34,256.337,138.385,256.337,140.919Z" transform="translate(-79.176 -59.121)"/><path class="f" d="M209.067,55.174l-49.726,66.988-19.016,25.615-20.778-13.231L94.123,168.273h-.366a4.579,4.579,0,0,1-3.948-2.252l28.565-37.907,20.778,13.206,14.22-19.116L205.227,52.39Z" transform="translate(-79.313 -44.943)"/><path class="f" d="M218.12,54.509,236.4,43.43,231.343,62.6l-3.225-8.868Z" transform="translate(-100.982 -43.43)"/></g><g transform="translate(35.12 111.872)"><path class="e" d="M360.178,310.52H67.883L35.12,339.651" transform="translate(-35.12 -156.979)"/><line class="e" y1="56.641" transform="translate(32.945 76.504)"/><line class="e" y1="10.954" transform="translate(32.945 139.295)"/><g transform="translate(266.406)"><path class="a" d="M402.355,141.521s0-3.424-4.8-8.211-7.871-7.53-7.871-7.53-2.4,7.871,2.053,12.666a83.948,83.948,0,0,0,10.613,9.259Z" transform="translate(-361.297 -125.78)"/><path class="a" d="M393.986,167.25s0-3.424-4.8-8.22-7.871-7.53-7.871-7.53-2.394,7.871,2.053,12.666a85.3,85.3,0,0,0,10.613,9.267Z" transform="translate(-359.885 -130.124)"/><path class="a" d="M404.558,148.83s.366-3.408,5.635-7.671,8.627-6.649,8.627-6.649,1.546,8.1-3.383,12.375a84.366,84.366,0,0,1-11.528,8.07Z" transform="translate(-363.808 -127.254)"/><path class="a" d="M394.322,179.529s.723-3.324,6.408-7.031S410,166.78,410,166.78s.69,8.2-4.638,11.96a83.772,83.772,0,0,1-12.309,6.807Z" transform="translate(-361.974 -132.704)"/><path class="a" d="M396.49,212.031s0-3.424,4.787-8.211,7.871-7.53,7.871-7.53,2.4,7.879-2.053,12.666a83.291,83.291,0,0,1-10.605,9.267Z" transform="translate(-362.555 -137.688)"/><path class="a" d="M394,219.787s.482-3.391-3.582-8.81S383.7,202.4,383.7,202.4s-3.474,7.48.241,12.832a84.306,84.306,0,0,0,9.192,10.655Z" transform="translate(-360.146 -138.72)"/><path class="a" d="M390.7,244.081s0-3.416,4.8-8.211,7.871-7.48,7.871-7.48,2.4,7.871-2.053,12.658a83.944,83.944,0,0,1-10.613,9.267Z" transform="translate(-361.577 -143.109)"/><path class="a" d="M394.532,265.259s-.831-3.324,2.568-9.142,5.71-9.267,5.71-9.267,4.305,7.015,1.222,12.774A84.115,84.115,0,0,1,396.1,271.26Z" transform="translate(-362.209 -146.227)"/><path class="i" d="M403.019,143.7a97.042,97.042,0,0,1-1.313,10.622c-1.895,9.791-6.649,16.107-8.527,24.934s3.549,20.238,2.094,31.582-5.884,17.67-4.638,25.249,7.9,28.092,7.9,28.092" transform="translate(-361.53 -128.806)"/><line class="i" y1="3.973" x2="5.161" transform="translate(40.708 19.88)"/><line class="i" x1="2.153" y1="3.848" transform="translate(38.788 15.442)"/><path class="i" d="M394.09,184.681s4.322-3.25,8.768-6.491" transform="translate(-362.15 -134.631)"/><path class="i" d="M395.128,175.452A69.268,69.268,0,0,0,387.44,163.7" transform="translate(-361.027 -132.184)"/><path class="i" d="M396.69,218.577a53.674,53.674,0,0,1,9.267-12.367" transform="translate(-362.589 -139.363)"/><path class="i" d="M394.133,224.207a61,61,0,0,0-4.721-8.9c-2.493-3.723-2.892-4.205-2.892-4.205" transform="translate(-360.871 -140.189)"/><path class="i" d="M390.7,251.9a57.829,57.829,0,0,1,3.9-7.879,51.157,51.157,0,0,1,5.037-6.649" transform="translate(-361.577 -144.626)"/><path class="i" d="M396.416,272.629a14.644,14.644,0,0,1,1.3-7.58c1.8-3.482,3.84-8.054,4.687-9.849" transform="translate(-362.531 -147.637)"/><path class="a" d="M367.3,197.453s-.374-2.136,2.111-5.668,4.156-5.585,4.156-5.585,2.352,4.671.083,8.162a53.326,53.326,0,0,1-5.652,6.948Z" transform="translate(-357.621 -135.984)"/><path class="a" d="M375.336,212.713s-.374-2.153,2.111-5.677,4.156-5.577,4.156-5.577,2.352,4.679.083,8.162a52.775,52.775,0,0,1-5.652,6.948Z" transform="translate(-358.979 -138.561)"/><path class="a" d="M366.157,202.6s-.582-2.094-4.363-4.156-6.134-3.241-6.134-3.241-.091,5.211,3.474,7.4a53.308,53.308,0,0,0,8.1,3.807Z" transform="translate(-355.66 -137.504)"/><path class="a" d="M375.648,220.773s-.831-2.02-4.787-3.707-6.441-2.576-6.441-2.576.457,5.211,4.222,6.99a53.624,53.624,0,0,0,8.461,2.934Z" transform="translate(-357.139 -140.762)"/><path class="a" d="M378.357,241.272s-.374-2.144-3.9-4.629-5.76-3.873-5.76-3.873-.648,5.211,2.668,7.721a53.108,53.108,0,0,0,7.655,4.629Z" transform="translate(-357.853 -143.849)"/><path class="a" d="M381.237,245.648s-.673-2.069,1.288-5.909,3.324-6.109,3.324-6.109,2.992,4.289,1.247,8.07a54.183,54.183,0,0,1-4.638,7.68Z" transform="translate(-359.961 -143.994)"/><path class="a" d="M388.41,267.091s.249-2.161,3.624-4.845,5.527-4.156,5.527-4.156.947,5.153-2.219,7.862a53.924,53.924,0,0,1-7.372,5.07Z" transform="translate(-361.116 -148.125)"/><path class="a" d="M385.459,260.772s-.374-2.153-3.9-4.638-5.751-3.865-5.751-3.865-.648,5.211,2.66,7.721a53.489,53.489,0,0,0,7.663,4.629Z" transform="translate(-359.054 -147.142)"/><path class="a" d="M385.767,274.37s.191-2.178-2.593-5.469-4.588-5.211-4.588-5.211-1.945,4.862.623,8.145a54.332,54.332,0,0,0,6.233,6.441Z" transform="translate(-359.413 -149.071)"/><path class="i" d="M366.85,199.14a61.505,61.505,0,0,0,1.986,6.524c2.244,5.926,5.9,9.375,8.045,14.711s0,13.073,2.119,20.03,5.61,10.422,5.635,15.334-1.87,18.484-1.87,18.484" transform="translate(-357.55 -138.169)"/><line class="i" x1="3.665" y1="1.92" transform="translate(7.106 64.594)"/><line class="i" y1="2.643" x2="0.939" transform="translate(10.123 61.037)"/><path class="i" d="M377.4,223.787s-3.067-1.562-6.2-3.117" transform="translate(-358.284 -141.805)"/><path class="i" d="M376.14,217.975a43.919,43.919,0,0,1,3.549-8.195" transform="translate(-359.118 -139.966)"/><path class="i" d="M379.388,245.349a34.2,34.2,0,0,0-7.148-6.749" transform="translate(-358.46 -144.833)"/><path class="i" d="M382.1,248.4a38.11,38.11,0,0,1,1.97-6.075c1.155-2.618,1.355-2.959,1.355-2.959" transform="translate(-360.125 -144.963)"/><path class="i" d="M388.06,270.415A31.972,31.972,0,0,1,392,266.326a21.169,21.169,0,0,0,2.56-2.236" transform="translate(-361.132 -149.138)"/><path class="i" d="M386.786,265.592a37.29,37.29,0,0,0-3.324-4.513,32.413,32.413,0,0,0-3.881-3.6" transform="translate(-359.699 -148.022)"/><path class="i" d="M385.848,279.146a9.375,9.375,0,0,0-1.662-4.629c-1.513-1.995-3.324-4.638-4.006-5.677" transform="translate(-359.801 -149.94)"/><path class="f" d="M400.771,312.4H378.946a1.662,1.662,0,0,1-1.662-1.621L374.15,286.63H405.5l-3.133,24.152A1.662,1.662,0,0,1,400.771,312.4Z" transform="translate(-358.782 -152.945)"/><path class="f" d="M404.759,290.549H373.692a2.443,2.443,0,0,1-2.452-2.427h0a2.493,2.493,0,0,1,2.444-2.452h31.075a2.443,2.443,0,0,1,2.452,2.443h0a2.443,2.443,0,0,1-2.452,2.435Z" transform="translate(-358.291 -152.783)"/></g></g><g transform="translate(217.038 77.084)"><path class="a" d="M314.923,169.176a30.176,30.176,0,0,1-23.374,29.4h-.1c-.79.175-1.579.332-2.394.449a30.815,30.815,0,0,1-4.313.308,30.174,30.174,0,1,1-1.114-60.338c.274.007.565.007.831.007a1.428,1.428,0,0,1,.266,0,1.909,1.909,0,0,1,.308,0,29.712,29.712,0,0,1,11.818,2.535,30.178,30.178,0,0,1,18.068,27.643Z" transform="translate(-254.005 -93.223)"/><path class="j" d="M298.137,141.548c-34.849-1.812-35.015,36.877-35.015,36.877s-5.319-12.625,3.366-26.6c4.854-7.821,13.3-11.27,19.83-12.8A29.712,29.712,0,0,1,298.137,141.548Z" transform="translate(-255.271 -93.23)"/><path class="e" d="M314.921,169.178A30.177,30.177,0,0,1,291.452,198.6a29.677,29.677,0,0,1-6.709.757A30.183,30.183,0,1,1,283.63,139h1.114a30.186,30.186,0,0,1,30.178,30.178Z" transform="translate(-254.004 -93.225)"/><path class="e" d="M316.186,169.178A30.177,30.177,0,0,1,292.717,198.6H291.6a30.186,30.186,0,0,1-6.707-59.6h1.114a30.186,30.186,0,0,1,30.178,30.178Z" transform="translate(-255.269 -93.225)"/><path class="k" d="M299.549,189.463l.781,3.191-5.219,1.272-.781-3.183c-4.671,0-8.419-3.034-9.616-7.9l-.357-1.446,5.76-2.086.366,1.5c.723,2.959,2.676,4.38,5.111,3.782a3.74,3.74,0,0,0,2.984-4.845c-.7-2.842-3.956-4.621-7.729-6.458-4.463-2.161-9.068-4.9-10.331-10.065-1.23-5.037.316-9.234,4.3-11.311l-.781-3.191,5.211-1.272.781,3.183c4.53-.066,7.9,2.917,9.142,8.07l.258,1.047-5.751,2.086-.291-1.155c-.765-3.133-2.377-4.455-4.521-3.931s-3.034,2.161-2.41,4.7c.7,2.842,4,4.555,7.729,6.466,4.413,2.236,9.067,4.9,10.331,10.057C305.782,182.939,303.754,187.36,299.549,189.463Z" transform="translate(-258.411 -94.652)"/><path class="l" d="M299.549,189.463l.781,3.191-5.219,1.272-.781-3.183c-4.671,0-8.419-3.034-9.616-7.9l-.357-1.446,5.76-2.086.366,1.5c.723,2.959,2.676,4.38,5.111,3.782a3.74,3.74,0,0,0,2.984-4.845c-.7-2.842-3.956-4.621-7.729-6.458-4.463-2.161-9.068-4.9-10.331-10.065-1.23-5.037.316-9.234,4.3-11.311l-.781-3.191,5.211-1.272.781,3.183c4.53-.066,7.9,2.917,9.142,8.07l.258,1.047-5.751,2.086-.291-1.155c-.765-3.133-2.377-4.455-4.521-3.931s-3.034,2.161-2.41,4.7c.7,2.842,4,4.555,7.729,6.466,4.413,2.236,9.067,4.9,10.331,10.057C305.782,182.939,303.754,187.36,299.549,189.463Z" transform="translate(-258.411 -94.652)"/><line class="e" y1="0.291" x2="6.375" transform="translate(15.314 101.61)"/><line class="e" y1="0.474" x2="5.56" transform="translate(12.248 99.308)"/><line class="e" y1="0.474" x2="5.56" transform="translate(9.754 97.072)"/><line class="e" x2="4.762" transform="translate(8.99 55.026)"/><line class="e" y1="0.216" x2="4.746" transform="translate(11.342 52.616)"/><line class="e" y1="0.474" x2="5.003" transform="translate(14.317 50.155)"/><path class="l" d="M291.543,198.573h-.091a29.679,29.679,0,0,1-6.707.756,30.174,30.174,0,1,1-1.114-60.338c.274.007.565.007.831.007-7.355,2.319-19.7,8.245-23,20.6C256.8,177.163,267.3,197.1,291.543,198.573Z" transform="translate(-254.005 -93.223)"/><path class="m" d="M322.044,169.69a30.176,30.176,0,0,1-23.374,29.4h-.1c-.79.175-1.579.332-2.394.449l7.813-57.5a30.178,30.178,0,0,1,18.052,27.66Z" transform="translate(-261.127 -93.736)"/><path class="a" d="M341.278,112.37a18.285,18.285,0,0,1-21.867,6.35l-.108-.05q-.851-.374-1.662-.831a16.319,16.319,0,0,1-1.762-1.1,18.285,18.285,0,0,1,20.1-30.444l.407.258c.191.108.374.241.565.374s.557.407.831.623a18.285,18.285,0,0,1,3.491,24.817Z" transform="translate(-263.239 -83.923)"/><path class="j" d="M314.291,112.937s-2.984-8.785.981-15.251c4.987-8.1,12.625-11.8,23.022-9.807,0,0-5.635-3.807-15.068-1.105S308.73,102.456,314.291,112.937Z" transform="translate(-263.795 -84.241)"/><path class="e" d="M341.276,112.385a18.285,18.285,0,0,1-21.867,6.333,17.91,17.91,0,0,1-3.574-1.961A18.285,18.285,0,0,1,336.373,86.57c.183.108.374.233.557.366a18.285,18.285,0,0,1,4.347,25.449Z" transform="translate(-263.237 -83.93)"/><path class="e" d="M341.808,112.648a18.285,18.285,0,0,1-21.867,6.333l-.557-.366A18.285,18.285,0,0,1,336.9,86.834c.183.108.374.233.557.366a18.285,18.285,0,0,1,4.347,25.449Z" transform="translate(-263.77 -84.193)"/><path class="k" d="M327.085,115.892l-.723,1.845-3.025-1.188.723-1.853a5.918,5.918,0,0,1-1.995-7.256l.332-.831,3.574.972-.341.881c-.673,1.712-.216,3.092,1.2,3.649a2.261,2.261,0,0,0,3.167-1.355c.648-1.662-.341-3.665-1.562-5.884-1.446-2.626-2.759-5.585-1.587-8.577s3.383-4.455,6.067-4.089l.731-1.845,3.017,1.188-.723,1.837c2.261,1.546,2.884,4.156,1.712,7.189l-.241.6-3.574-.972.266-.673c.715-1.812.382-3.034-.831-3.524s-2.252,0-2.834,1.488c-.648,1.662.391,3.64,1.563,5.884,1.4,2.651,2.768,5.593,1.6,8.577a5.893,5.893,0,0,1-6.508,3.939Z" transform="translate(-265.411 -85.01)"/><path class="l" d="M327.085,115.892l-.723,1.845-3.025-1.188.723-1.853a5.918,5.918,0,0,1-1.995-7.256l.332-.831,3.574.972-.341.881c-.673,1.712-.216,3.092,1.2,3.649a2.261,2.261,0,0,0,3.167-1.355c.648-1.662-.341-3.665-1.562-5.884-1.446-2.626-2.759-5.585-1.587-8.577s3.383-4.455,6.067-4.089l.731-1.845,3.017,1.188-.723,1.837c2.261,1.546,2.884,4.156,1.712,7.189l-.241.6-3.574-.972.266-.673c.715-1.812.382-3.034-.831-3.524s-2.252,0-2.834,1.488c-.648,1.662.391,3.64,1.563,5.884,1.4,2.651,2.768,5.593,1.6,8.577a5.893,5.893,0,0,1-6.508,3.939Z" transform="translate(-265.411 -85.01)"/><path class="l" d="M335.934,86.313c-4.987-.889-11.3-1.38-14.711.831-6.258,4.014-10.156,9.076-10.1,17.279s7.721,13.954,7.721,13.954l.449.324a18,18,0,0,1-3.466-1.92,18.285,18.285,0,0,1,20.1-30.444Z" transform="translate(-263.231 -83.93)"/><path class="m" d="M343.1,113.109a18.285,18.285,0,0,1-21.867,6.35l-.108-.05q-.851-.374-1.662-.831l20.1-30.278a18.285,18.285,0,0,1,3.541,24.809Z" transform="translate(-265.058 -84.662)"/></g><g transform="translate(86.903 124.566)"><path class="a" d="M296.2,367.5a109.707,109.707,0,0,1-27.294,23.562,96.463,96.463,0,0,1-9.973,5.2c-23.612,10.613-50.524,11.3-75.69,5.2-52.917-12.824-80.992-59.533-84.558-111.386-.956-14.013-3.1-29.147,2.576-42.478S118.417,226,131.4,220.247c9.425-4.2,19.606-7.015,28.856-9.317a74.227,74.227,0,0,1,49.942,5.153c10.879,5.161,18.625,14.129,27.776,21.684q1.454,1.2,2.926,2.385a274.188,274.188,0,0,0,29.089,20.454c15.384,9.383,31.134,18.235,40.966,33.993C326.636,319.715,313.4,347.058,296.2,367.5Z" transform="translate(-97.436 -152.488)"/><path class="j" d="M296.2,367.5a109.707,109.707,0,0,1-27.294,23.562,96.463,96.463,0,0,1-9.973,5.2c-23.612,10.613-50.524,11.3-75.69,5.2-52.917-12.824-80.992-59.533-84.558-111.386-.956-14.013-3.1-29.147,2.576-42.478S118.417,226,131.4,220.247c9.425-4.2,19.606-7.015,28.856-9.317a74.227,74.227,0,0,1,49.942,5.153c10.879,5.161,18.625,14.129,27.776,21.684q1.454,1.2,2.926,2.385a274.188,274.188,0,0,0,29.089,20.454c15.384,9.383,31.134,18.235,40.966,33.993C326.636,319.715,313.4,347.058,296.2,367.5Z" transform="translate(-97.436 -152.488)"/><path class="k" d="M240.855,240.152q-1.471-1.18-2.926-2.394c-9.142-7.571-16.9-16.514-27.776-21.676a74.277,74.277,0,0,0-49.942-5.153c-22,5.46-49.285,13.871-59.009,36.686-5.677,13.3-3.532,28.457-2.568,42.47,3.607,51.853,31.682,98.562,84.6,111.386,28.79,6.981,59.84,5.07,85.663-10.406A109.708,109.708,0,0,0,296.191,367.5c17.2-20.445,30.435-47.789,14.769-72.906-9.824-15.791-25.573-24.609-40.966-33.993a274.19,274.19,0,0,1-29.139-20.454Z" transform="translate(-97.426 -152.489)"/><path class="e" d="M170.954,357.78a76.1,76.1,0,0,0-12.774,5.17" transform="translate(-107.686 -177.655)"/><path class="e" d="M202.116,351.6A136.3,136.3,0,0,0,183,354.634" transform="translate(-111.878 -176.611)"/><path class="e" d="M188.114,348.5s-24.834-14.445-54.8-2.867" transform="translate(-103.486 -174.845)"/><path class="m" d="M298.808,367.5a109.707,109.707,0,0,1-27.294,23.562,96.46,96.46,0,0,1-9.973,5.2,77.884,77.884,0,0,1-7.954-2.917c-15.509-6.649-28.524-17.894-41.24-28.981-7.671-6.649-15.467-13.464-24.651-17.844a56.7,56.7,0,0,0-39.761-3.275,44.656,44.656,0,0,1,26.3-14.47c-6.566-5.976-15.7-8.486-24.576-8.644s-13.763.931-22.44,2.876c2.9-5.336,10.6-10.165,16.672-10.023a150.99,150.99,0,0,1-17.271-1.222c-7.837-1.263-11.345-10.489-12.517-18.334-3.241-21.609.042-44.623,11.835-62.99a64.122,64.122,0,0,1,8.062-10.2c9.425-4.2,19.606-7.015,28.856-9.317a74.227,74.227,0,0,1,49.942,5.153c10.879,5.161,18.625,14.129,27.776,21.684q1.454,1.2,2.926,2.385a274.181,274.181,0,0,0,29.089,20.454c15.384,9.383,31.134,18.235,40.966,33.993C329.243,319.715,316.012,347.058,298.808,367.5Z" transform="translate(-100.043 -152.488)"/><path class="d" d="M344.408,399a160.7,160.7,0,0,0,14.6,10.8c9.882.665,5.452,12.608,5.452,12.608L356,427.856s-14.486-11.511-22.4-15.243S344.408,399,344.408,399Z" transform="translate(-136.983 -184.616)"/><path class="l" d="M240.68,240.674s-1.355-13.406-3.516-17.171l-32.812-6.682v-2.543s.756-4.422-6.558-7.189-22.557.831-26.488,3.807-2.493,8.1-2.493,8.1-13.215,6.674-19.149,9.217a151.632,151.632,0,0,0-14.187,7.48s-2.693,30.818-2.161,37.974-.432,13.888.183,17.852,1.1,6.217,5.253,9.591,7.937,8.311,18.833,3.416l-1.521-1.205,71.725-24.161Z" transform="translate(-103.475 -152.038)"/><path class="a" d="M240.68,240.674s-1.355-13.406-3.516-17.171l-32.812-6.682v-2.543s.756-4.422-6.558-7.189-22.557.831-26.488,3.807-2.493,8.1-2.493,8.1-13.215,6.674-19.149,9.217a151.632,151.632,0,0,0-14.187,7.48s-2.693,30.818-2.161,37.974-.432,13.888.183,17.852,1.1,6.217,5.253,9.591,7.937,8.311,18.833,3.416l-1.521-1.205,71.725-24.161Z" transform="translate(-103.475 -152.038)"/><path class="n" d="M240.68,240.674s-1.355-13.406-3.516-17.171l-32.812-6.682v-2.543s.756-4.422-6.558-7.189-22.557.831-26.488,3.807-2.493,8.1-2.493,8.1-13.215,6.674-19.149,9.217a151.632,151.632,0,0,0-14.187,7.48s-2.693,30.818-2.161,37.974-.432,13.888.183,17.852,1.1,6.217,5.253,9.591,7.937,8.311,18.833,3.416l-1.521-1.205,71.725-24.161Z" transform="translate(-103.475 -152.038)"/><path class="m" d="M238.32,229H224.59a5.46,5.46,0,0,0-5.377,4.563l-6.765,40.725s-9.317.773-15.916,5.585-22.831-29.521-48.479-29.538c0,0,7.38,16.872,9.018,30.336,0,0-16.032-1.745-18.692,4.53s1.205,18.035,7.987,13.481,13.165-12.151,17.694-7.347,24.767,7.389,24.767,7.389l31.142-15.7,12.076-5.677Z" transform="translate(-104.199 -155.906)"/><path class="j" d="M201.138,204.71s7.8,2.161,9.059,4.779,1.13,9.242,1.13,9.242a32,32,0,0,1-8.386,11.536l-5.818-11.536.524,13.082s-11.037-1.837-15.725-5.361l-4.679-3.532s-2.02-6.649-1.729-8.9,8.71-6.823,8.71-6.823Z" transform="translate(-110.609 -151.804)"/><path class="a" d="M354.533,440.736c-.216-.474,3.2-6.508.524-12.65s-6.94-3.773-6.94-3.773-12.143-7.729-17.246-10.173a87.018,87.018,0,0,1-10.6-6.3L314.88,415.1l4.987,15.426Z" transform="translate(-134.15 -186.109)"/><path class="a" d="M354.34,420.934l15.592,9.525s10.962-7.031,16.19-11.885,16.971-15.193,16.971-15.193l7.48-10.065s-5.186-6.416-13.83-1.263c-11.17,6.649-24.792,16.307-33.876,16.215,0,0,1.787,11.162-8.469,12.666" transform="translate(-140.814 -183.105)"/><path class="d" d="M197.674,156.23s7.073,10.7,8.361,14.171,2.327,8.594,2.069,11.062-2.851,15.691-4.156,16.074l-1.255,1.421.831,5.6s-5.535,9.566-21.809,2.552c0,0-.632-11.17-2.61-14.678s-4.937.665-7.9-9.466,6.483-20.778,6.483-20.778Z" transform="translate(-109.788 -143.616)"/><path class="c" d="M406.573,390.22s-8.02,1.4-10.622,6.142-7.6,13.564-9.3,17.828-15.791,14.561-15.791,14.561l1.87,1.737s11.469-7.089,18.393-13.83,22.191-23.7,22.191-23.7S412.216,391.874,406.573,390.22Z" transform="translate(-143.604 -183.133)"/><path class="c" d="M316.866,413.37l-1.986,2.668,6.1,12.65,33.552,12.06,1.554-4.912s.515-4.987-11.262-8.777-18.958-6.292-22.307-8.893S316.866,413.37,316.866,413.37Z" transform="translate(-134.15 -187.043)"/><path class="d" d="M180.06,298.114s-10.273-1.546-15.068,6.857-4.305,12.043-4.305,12.043,6.79,6.167,16.124,5.818,22.922-11.037,27.352-14.52,15.6-13.447,23.221-11.386l.831-7.206s-.748-3.233-7.264-2.36-9.076,4.588-11.179,4.588-4.089-2.02-8.311,5.194C201.453,297.142,186.635,299.768,180.06,298.114Z" transform="translate(-108.107 -165.737)"/><path class="e" d="M200.06,174.75a29.756,29.756,0,0,0,.931,3.981,4.638,4.638,0,0,0,.831,1.754,5.373,5.373,0,0,0,3.2,1.222.873.873,0,0,1,.515.216.831.831,0,0,1,.125.5,6.649,6.649,0,0,1-1.13,3.674" transform="translate(-114.759 -146.744)"/><path class="m" d="M324.16,403l-6.89,8.585s7.563,6.99,15.392,9.583,21.534,7.48,23.828,11.245l-.881-4.48s-21.435-13.148-26.355-16.29A11.353,11.353,0,0,1,324.16,403Z" transform="translate(-134.554 -185.292)"/><path class="m" d="M354.34,420.963l13.722,7.788s6.774-4.638,10.1-8.053,7.422-7.206,9.973-14.86c3.482-10.58,13.456-15.617,13.456-15.617s-13.871,6.533-21.094,11.636-14.262,7.264-18.351,6.915C362.1,408.8,365.386,419.184,354.34,420.963Z" transform="translate(-140.814 -183.133)"/><path class="o" d="M194.24,190.67s5.394,4.23,11,2.643C205.236,193.313,199.95,203.785,194.24,190.67Z" transform="translate(-113.776 -149.433)"/><path class="f" d="M193.56,179.269c.158,1.164-.2,2.169-.781,2.252s-1.188-.831-1.346-1.97.191-2.169.781-2.252S193.435,178.105,193.56,179.269Z" transform="translate(-113.295 -147.174)"/><path class="f" d="M207.691,176.721c.15,1.172-.2,2.178-.781,2.252s-1.2-.831-1.346-1.961.191-2.178.781-2.252S207.533,175.557,207.691,176.721Z" transform="translate(-115.682 -146.745)"/><path class="e" d="M191.907,173.653s-3.142-1.621-5.377,1.853" transform="translate(-112.474 -146.495)"/><path class="e" d="M202.69,170.873s3.324-2.851,5.244,0" transform="translate(-115.203 -145.875)"/><path class="e" d="M178.809,186.012s-2.02-2.984-4.156-2.892-2.984,3.083-2.219,5.976,3.948,6.932,6.358,6.549a5.352,5.352,0,0,0,3.466-1.928" transform="translate(-110.047 -148.157)"/><path class="e" d="M201.283,159.13c2.269,1.887,4.671,3.939,5.818,6.715,1.014,2.36,1.238,4.987,2.169,7.372.989,2.552,2.069,5.219,2.153,8a33.9,33.9,0,0,1-1.006,7.638,42.1,42.1,0,0,1-1.538,6.391,11.31,11.31,0,0,1-5.967,6.233c-2.02,1.031-5.386,2.493-7.571,1.114-1.272-.831-3.183-3.208-4.771-5.394" transform="translate(-113.156 -144.106)"/><path class="e" d="M180.16,198.19s3.574,8.76,2.709,14.919" transform="translate(-111.398 -150.703)"/><path class="f" d="M175.968,177.437a3.441,3.441,0,0,0,1.38-3.083c-.133-1.346-1.064-2.593-.881-3.939a7.255,7.255,0,0,1,.715-1.845,7.738,7.738,0,0,0-.432-7s11.353.532,16.672-2.851,9.375-12.035,6.159-16.165-9.483,1.5-14.129,2.128-21.169,3.258-23.8,9.624,1.38,8.652,1.5,14.727.125,17.586,9.209,16.531c0,0-3.4-4.4-1.039-8.926C172.927,174.736,175.968,177.437,175.968,177.437Z" transform="translate(-108.121 -141.053)"/><path class="f" d="M204.722,151.5a14.245,14.245,0,0,1,5.436,9.973c.507,4.555,8.585,13.406,2.759,18.451,0,0-1.355-5.361-2.153-8s-1.82-7.48-3.158-9.142-8.436-7.48-8.436-7.48Z" transform="translate(-114.609 -142.818)"/><path class="e" d="M180.4,214.827s5.6,3.69,16.007,3.84l1.222,13.954s-11.7-.889-20.4-8.893c0,0-2.352-6.225-1.729-8.9s6.217-5.327,6.217-5.327" transform="translate(-110.593 -152.613)"/><path class="e" d="M208.21,208.2l.332,4.987a20.628,20.628,0,0,1-7.862,5.111L207.2,230.7s7.771-6.051,8.544-12.409c0,0,.066-6.508-1.288-8.369s-6.292-2.734-6.292-2.734" transform="translate(-114.864 -152.223)"/><path class="p" d="M171.8,159.239c.831-2.086,3.108-3.324,5.327-3.657a55.2,55.2,0,0,1,6.74-.158,17.3,17.3,0,0,0,8.81-2.493A11.777,11.777,0,0,0,198,145.65" transform="translate(-109.986 -141.83)"/><path class="p" d="M165.35,159.369c1.4-4.264,5.959-6.9,10.439-7.272,2.219-.191,4.463.066,6.649-.191s4.513-1.172,5.668-3.075" transform="translate(-108.897 -142.367)"/><path class="e" d="M157.576,307.135c-10.8,5.6-14.644-.166-20.662-4.937s-2.069-13.3-3.324-26.97,1.87-36.927,1.87-36.927,2.693-.615,10.165-5.186,23.2-11.536,23.2-11.536" transform="translate(-103.483 -154.653)"/><path class="e" d="M170.421,298.487s-1.712-5.427-6.549-5.568-12.467,2.036-17.9,12.317" transform="translate(-105.624 -166.7)"/><path class="e" d="M163.48,292.235a2.676,2.676,0,0,1-.873-.208,21.035,21.035,0,0,0-12.417-.565" transform="translate(-106.337 -166.341)"/><path class="e" d="M146.84,250.63c8.8,9.724,13.09,22.59,17.154,35.057" transform="translate(-105.771 -159.559)"/><path class="e" d="M218.8,219s15.957,3.807,23.753,4.712,9.059,1.995,9.059,1.995l1.454,5.436" transform="translate(-117.924 -154.217)"/><path class="d" d="M296.325,230.38l-54.347,2.086-4.438,55.893h9.309L294.039,277.8l5.934-46.077Z" transform="translate(-121.089 -156.139)"/><path class="a" d="M240.94,290.553l59.441-56.973-5.768,44.756Z" transform="translate(-121.663 -156.68)"/><path class="b" d="M240.94,290.553l59.441-56.973-5.768,44.756Z" transform="translate(-121.663 -156.68)"/><path class="e" d="M240.94,288.789l4.754-53.915,54.854-2.884-5.934,46.077Z" transform="translate(-121.663 -156.411)"/><path class="f" d="M283.507,262.134c-.366,3.283-2.119,5.776-3.915,5.577s-2.942-3.034-2.576-6.316,2.128-5.776,3.923-5.577S283.881,258.851,283.507,262.134Z" transform="translate(-127.744 -160.433)"/><path class="f" d="M296.355,287.423s25.116-.715,32.97,4.471S341.792,323.086,340.7,336.9s-10.564,45.512-10.564,45.512l-18.152-20.545s-8.943-32.513-4.064-45.246c0,0-24.1,1.355-33.594-1.621,0,0-8.5-13.921-23.08-18.526Z" transform="translate(-123.404 -165.767)"/><path class="k" d="M322.614,384.507a124.514,124.514,0,0,1-17.271-19.947,164.346,164.346,0,0,0-33.419-36.76c-10.065-8.162-12.342-21.459-24.759-28.133-20.57-11.029-38.356,10.888-45,15.326S184,324.459,184,324.459s4.205,15.791,16.556,17.661,24.842-6.649,30.751-2.535,10.281,22.482,29.8,33.245c15.949,8.793,37.683,17.37,48.895,23.155,2.493,1.3,4.355,2.66,5.768,3.433,3.873,2.111,8.012,4.6,11.918,7.056l13.456,8.195s13.506-7.987,18.692-15.351c.69-.989,2.128-3.624,3.474-6.167,2.934-5.56,6.649-10.547,11.794-13.3,3.557-1.92,6.724-2.493,6.649-2.693-.341-.632-6.79-3.931-11.17-2.128-9.275,3.831-27.817,18.551-36.569,17.453A65.515,65.515,0,0,1,322.614,384.507Z" transform="translate(-112.047 -167.322)"/><path class="f" d="M322.614,384.513c-8.087,3.266-11.345,8.311-12.591,11.486-11.212-5.818-32.945-14.362-48.895-23.155-19.515-10.8-23.853-29.139-29.8-33.245s-18.442,4.438-30.751,2.535S184,324.457,184,324.457s11.519-4.987,18.168-9.425,21.983-26.363,45-15.326c12.708,6.092,14.694,19.947,24.759,28.133a164.217,164.217,0,0,1,33.419,36.76A122.172,122.172,0,0,0,322.614,384.513Z" transform="translate(-112.047 -167.328)"/><path class="q" d="M274.367,314.521s-6.225-12.65-16.207-15.1" transform="translate(-124.571 -167.799)"/><path class="e" d="M225.274,287.25c-6.865-1.5-14.4,6.092-17.578,4.671-2.36-1.056-6.242,5.194-6.242,5.194a103.983,103.983,0,0,1-19.3.972c-9.25-.59-13.63,1.213-16.9,6.159l-4.571,12.109s12.059,10.8,24.934,4.513,29.978-25.274,41.764-25.208" transform="translate(-108.108 -165.71)"/><path class="k" d="M353.71,424.272s11.27.923,8.627-12.542" transform="translate(-140.708 -186.766)"/><path class="f" d="M413.533,400.335c-.831,1.662-11.162,10.455-20.063,18.143,0-.116,2.493-4.812,3.524-6.815,2.369-4.422,8.486-16.548,20.13-18.143C418.778,394.517,413.533,400.335,413.533,400.335Z" transform="translate(-147.423 -183.691)"/><path class="k" d="M405.285,390.33c-11.777,2.344-14.453,17.453-18.634,23.878s-15.791,15.16-15.791,15.16" transform="translate(-143.604 -183.152)"/><path class="k" d="M355.056,428.173c1.92,3.507,1.014,7.58,0,10.131a21.144,21.144,0,0,1-1.845,3.632c-16.672-2.743-33.344-11.7-33.344-11.7l-4.3-13.3-.69-2.128,6.474-8.718" transform="translate(-134.15 -185.814)"/><path class="f" d="M355.2,440.508a21.147,21.147,0,0,1-1.845,3.632c-16.672-2.743-33.344-11.7-33.344-11.7l-4.3-13.3a23.77,23.77,0,0,0,12.126,8.61C335.956,430.053,350.941,432.745,355.2,440.508Z" transform="translate(-134.29 -188.018)"/><path class="e" d="M237.54,286.414l4.438-53.948,54.347-2.086,3.649,1.338" transform="translate(-121.089 -156.139)"/><path class="k" d="M364,415.3s7.43,1.33,13.14-3.324,14.91-15.185,14.91-15.185" transform="translate(-142.446 -184.243)"/><path class="e" d="M372.938,411s-1.8,2.7,0,8.12" transform="translate(-143.82 -186.643)"/><path class="e" d="M379.343,407.89a11.062,11.062,0,0,0,.673,8.12" transform="translate(-144.956 -186.118)"/><path class="e" d="M386.864,403.51s-1.5,4.513,0,8.494" transform="translate(-146.194 -185.378)"/><path class="k" d="M323.229,404.74l-5.959,7.173a37.712,37.712,0,0,0,14.47,9.284c8.469,2.726,23.6,7.355,24.85,12.284" transform="translate(-134.554 -185.586)"/></g></g></svg>