<svg xmlns="http://www.w3.org/2000/svg" width="240" height="240" viewBox="0 0 240 240"><g transform="translate(-9)" fill="none"><path d="M129,240a120.886,120.886,0,0,1-24.184-2.438,119.342,119.342,0,0,1-42.909-18.056,120.351,120.351,0,0,1-43.477-52.8,119.4,119.4,0,0,1-6.992-22.525,121.17,121.17,0,0,1,0-48.368A119.342,119.342,0,0,1,29.494,52.907,120.35,120.35,0,0,1,82.29,9.43a119.4,119.4,0,0,1,22.525-6.992,121.17,121.17,0,0,1,48.368,0,119.343,119.343,0,0,1,42.909,18.056,120.35,120.35,0,0,1,43.477,52.8,119.394,119.394,0,0,1,6.992,22.525,121.169,121.169,0,0,1,0,48.368,119.344,119.344,0,0,1-18.056,42.909,120.351,120.351,0,0,1-52.8,43.477,119.4,119.4,0,0,1-22.525,6.992A120.887,120.887,0,0,1,129,240ZM151.7,98.061h0a1.262,1.262,0,0,1,1.311.7c.6,1.447-1.392,4.864-3.554,7.025-9.2,9.2-24.172,23.459-36.416,34.682-2.154,1.884-3.241,3.832-3.231,5.788.013,2.482,1.813,4.393,2.884,5.311,7.06,5.974,23.39,16.644,31.238,21.772,2.1,1.373,3.49,2.28,3.791,2.506,1.251,1,9.422,6.442,15.49,6.442a8.106,8.106,0,0,0,1.851-.2,6.994,6.994,0,0,0,3.517-2.048,10.4,10.4,0,0,0,1.989-3.154,15.616,15.616,0,0,0,1.084-4.162l8.671-54.451c.77-5.1,1.526-10.007,2.258-14.751,1.893-12.277,3.388-21.972,3.638-25.48.245-2.777-.247-4.859-1.462-6.186a6.136,6.136,0,0,0-4.739-1.741,16.615,16.615,0,0,0-5.244.99c-.271.111-27.164,11.148-35.029,14.566L58.942,118.959a21.877,21.877,0,0,0-6.418,3.541,4.957,4.957,0,0,0-1.885,3.136c-.224,2.4,2.381,4.058,2.407,4.075.121.041,12.227,4.189,22.543,7.284a28.9,28.9,0,0,0,8.264,1.3c5,0,7.664-1.633,7.69-1.649l48.9-32.948C145.948,99.958,149.736,98.061,151.7,98.061Z" stroke="none"/><path d="M 128.9996948242188 230.0003204345703 C 136.4694061279297 230.0003204345703 143.9316558837891 229.2483673095703 151.17919921875 227.7653198242188 C 158.2370300292969 226.3210754394531 165.1794891357422 224.1659851074219 171.8136901855469 221.3599853515625 C 178.3295288085938 218.6039886474609 184.6148223876953 215.1923217773438 190.4949493408203 211.2198181152344 C 196.322021484375 207.2830657958984 201.8016510009766 202.7618560791016 206.7817840576172 197.78173828125 C 211.7618560791016 192.8016510009766 216.2830657958984 187.322021484375 220.2197723388672 181.4950256347656 C 224.1923217773438 175.6148223876953 227.6039886474609 169.3295288085938 230.3599853515625 162.8137359619141 C 233.1659851074219 156.1794891357422 235.3210754394531 149.2370300292969 236.7653198242188 142.1792297363281 C 238.2483673095703 134.9316558837891 239.0003204345703 127.4694061279297 239.0003204345703 119.9996948242188 C 239.0003204345703 112.530029296875 238.2483673095703 105.0677795410156 236.7653198242188 97.82027435302734 C 235.3210754394531 90.76248931884766 233.1660308837891 83.820068359375 230.3599853515625 77.18585968017578 C 227.6040344238281 70.67011260986328 224.1923980712891 64.38485717773438 220.2198181152344 58.50477600097656 C 216.2831878662109 52.67790222167969 211.7620239257812 47.19827651977539 206.7817840576172 42.21810913085938 C 201.8016510009766 37.23802947998047 196.3219909667969 32.71686172485352 190.4950714111328 28.78027725219727 C 184.6148223876953 24.80773544311523 178.3295288085938 21.39611053466797 171.8137817382812 18.64023590087891 C 165.1796875 15.83427715301514 158.2372283935547 13.67923545837402 151.1791534423828 12.23498630523682 C 143.9320678710938 10.75198554992676 136.4698181152344 10.00002765655518 128.9996948242188 10.00002765655518 C 121.5296096801758 10.00002765655518 114.0674057006836 10.75198554992676 106.8202743530273 12.23498630523682 C 99.76227569580078 13.67923545837402 92.81986236572266 15.83427715301514 86.18585968017578 18.64019393920898 C 79.67011260986328 21.39611053466797 73.38485717773438 24.80773544311523 67.50469207763672 28.78027725219727 C 61.67802810668945 32.71665191650391 56.19840240478516 37.23781967163086 51.21810913085938 42.21807098388672 C 46.23781967163086 47.19840240478516 41.71665191650391 52.67802810668945 37.78027725219727 58.50469589233398 C 33.80773544311523 64.38485717773438 30.39611053466797 70.67011260986328 27.64019393920898 77.18582153320312 C 24.83427810668945 83.81986236572266 22.67923545837402 90.76227569580078 21.2349853515625 97.82032012939453 C 19.75198554992676 105.0674057006836 19.00002670288086 112.5296096801758 19.00002670288086 119.9996948242188 C 19.00002670288086 127.4698181152344 19.75198554992676 134.9320678710938 21.2349853515625 142.17919921875 C 22.67923545837402 149.2372283935547 24.83427810668945 156.1796875 27.64019393920898 162.8137359619141 C 30.39611053466797 169.3295288085938 33.80773544311523 175.6148223876953 37.78027725219727 181.4950256347656 C 41.71686172485352 187.3219909667969 46.23802947998047 192.8016510009766 51.2181510925293 197.7818145751953 C 56.19827651977539 202.7620239257812 61.67790222167969 207.2831878662109 67.50473785400391 211.2198181152344 C 73.38485717773438 215.1923980712891 79.67011260986328 218.6040344238281 86.18582153320312 221.3599853515625 C 92.820068359375 224.1660308837891 99.76248931884766 226.3210754394531 106.8202362060547 227.7653198242188 C 114.0677795410156 229.2483673095703 121.530029296875 230.0003204345703 128.9996948242188 230.0003204345703 M 141.8720703125 183.9432220458984 C 141.4347534179688 183.6382141113281 140.2158050537109 182.8459625244141 138.4680328369141 181.7039794921875 C 129.8373260498047 176.0648193359375 113.7722778320312 165.5681915283203 106.1928634643555 159.1543121337891 C 102.1051940917969 155.6514892578125 99.84044647216797 151.0868988037109 99.81578063964844 146.3013610839844 C 99.81056213378906 145.2887878417969 99.90625 144.1299285888672 100.1814117431641 142.8795166015625 L 96.84706878662109 145.1256103515625 C 95.65782165527344 145.8696136474609 91.20606994628906 148.2971038818359 83.85327911376953 148.2971038818359 C 80.27761077880859 148.2971038818359 76.53048706054688 147.7169494628906 72.71573638916016 146.5726470947266 C 62.23040390014648 143.4270629882812 49.92456817626953 139.2118988037109 49.80169296264648 139.1697845458984 L 48.72119522094727 138.7991943359375 L 47.75206756591797 138.1944427490234 C 44.12073516845703 135.9284515380859 40.0903205871582 131.0359039306641 40.68240356445312 124.7046127319336 C 40.91865158081055 122.1793212890625 42.01486206054688 118.4478607177734 45.89590072631836 115.0121917724609 C 48.20140075683594 112.9712753295898 51.27948760986328 111.2152328491211 55.13244247436523 109.7133178710938 L 135.7646484375 76.49365234375 C 143.6728668212891 73.05611419677734 170.7127838134766 61.95798492431641 171.1606597900391 61.77619552612305 C 171.8781890869141 61.49761199951172 175.6776885986328 60.10790252685547 180.0236968994141 60.10790252685547 C 186.2622833251953 60.10790252685547 190.0552825927734 62.82032012939453 192.1383209228516 65.09540557861328 C 194.3301086425781 67.48902893066406 196.8116149902344 71.82936096191406 196.199951171875 78.74639892578125 C 195.9333953857422 82.48102569580078 194.6738128662109 90.74815368652344 192.4634857177734 105.0841522216797 L 190.2050323486328 119.8388214111328 L 181.62060546875 173.5906524658203 C 181.5685272216797 174.1845245361328 181.2358245849609 177.3206939697266 179.7949829101562 180.7513580322266 C 178.7971038818359 183.1271514892578 177.4671936035156 185.2006072998047 175.8419494628906 186.9142303466797 C 173.5212707519531 189.3610687255859 170.5876159667969 191.0557708740234 167.3608245849609 191.8146057128906 C 166.0471954345703 192.1239013671875 164.6534881591797 192.2807312011719 163.2171478271484 192.2807312011719 C 152.9206848144531 192.2794647216797 141.9703369140625 184.0228576660156 141.8720703125 183.9432220458984 M 128.9996948242188 240.0003204345703 C 120.8579025268555 240.0003204345703 112.72119140625 239.1800231933594 104.8155288696289 237.5623168945312 C 97.11081695556641 235.9856872558594 89.53227996826172 233.6331176757812 82.29032135009766 230.5700225830078 C 75.17986297607422 227.5625305175781 68.32181549072266 223.8400726318359 61.90665435791016 219.5060272216797 C 55.55244445800781 215.2131500244141 49.57727813720703 210.2831573486328 44.14702606201172 204.8528137207031 C 38.71681976318359 199.4225616455078 33.78686141967773 193.4473266601562 29.49402809143066 187.0930633544922 C 25.1600284576416 180.6778259277344 21.4376106262207 173.8197326660156 18.43015289306641 166.709228515625 C 15.36706924438477 159.4671936035156 13.01456928253174 151.8885650634766 11.43798637390137 144.1839447021484 C 9.820236206054688 136.2783660888672 9.000027656555176 128.1415710449219 9.000027656555176 119.9996948242188 C 9.000027656555176 111.8578186035156 9.820236206054688 103.7211074829102 11.43798637390137 95.81552886962891 C 13.01456928253174 88.11090087890625 15.36706924438477 80.53231811523438 18.43015289306641 73.29032135009766 C 21.4376106262207 66.17990112304688 25.1600284576416 59.32186126708984 29.49402809143066 52.90665435791016 C 33.78681945800781 46.55244445800781 38.71681976318359 40.57727813720703 44.14702606201172 35.14702606201172 C 49.57727813720703 29.71681976318359 55.55244445800781 24.78681945800781 61.90665435791016 20.49402809143066 C 68.32186126708984 16.1600284576416 75.17990112304688 12.4376106262207 82.29032135009766 9.430152893066406 C 89.53231811523438 6.367069244384766 97.11090087890625 4.014569282531738 104.8155288696289 2.437985897064209 C 112.7211074829102 0.8202359080314636 120.8578186035156 2.75878901447868e-05 128.9996948242188 2.75878901447868e-05 C 137.1415710449219 2.75878901447868e-05 145.2783660888672 0.8202359080314636 153.1839447021484 2.437985897064209 C 160.8885650634766 4.014569282531738 168.4671936035156 6.367069244384766 175.709228515625 9.430152893066406 C 182.8197326660156 12.4376106262207 189.6778259277344 16.1600284576416 196.0930633544922 20.49402809143066 C 202.4473266601562 24.78686141967773 208.4225616455078 29.71681976318359 213.8528137207031 35.14702606201172 C 219.2831573486328 40.57727813720703 224.2131500244141 46.55244445800781 228.5060272216797 52.90665435791016 C 232.8400726318359 59.32181930541992 236.5625305175781 66.17986297607422 239.5700225830078 73.29032135009766 C 242.6331176757812 80.53227996826172 244.9856872558594 88.11081695556641 246.5623168945312 95.81552886962891 C 248.1800231933594 103.72119140625 249.0003204345703 111.8579025268555 249.0003204345703 119.9996948242188 C 249.0003204345703 128.1415252685547 248.1800231933594 136.2782287597656 246.5623168945312 144.1839447021484 C 244.9856872558594 151.8886566162109 242.6331176757812 159.4672393798828 239.5700225830078 166.709228515625 C 236.5624847412109 173.8197784423828 232.8400268554688 180.6778564453125 228.5060272216797 187.0930633544922 C 224.2131042480469 193.4473266601562 219.2831115722656 199.4225616455078 213.8528137207031 204.8528137207031 C 208.4225616455078 210.2831115722656 202.4473266601562 215.2131042480469 196.0930633544922 219.5060272216797 C 189.6778564453125 223.8400268554688 182.8197784423828 227.5624847412109 175.709228515625 230.5700225830078 C 168.4672393798828 233.6331176757812 160.8886566162109 235.9856872558594 153.1839447021484 237.5623168945312 C 145.2782287597656 239.1800231933594 137.1415252685547 240.0003204345703 128.9996948242188 240.0003204345703 Z M 151.7048950195312 98.06065368652344 L 151.7052001953125 98.06065368652344 C 152.384033203125 98.06082153320312 152.8250274658203 98.29469299316406 153.0158996582031 98.75577545166016 C 153.6150207519531 100.2028198242188 151.6238250732422 103.6194000244141 149.4621124267578 105.7806091308594 C 140.2649841308594 114.9776916503906 125.2903213500977 129.2392425537109 113.0463180541992 140.4621124267578 C 110.8924865722656 142.3465728759766 109.8055725097656 144.2938537597656 109.8156509399414 146.2498168945312 C 109.8284454345703 148.7314453125 111.6281509399414 150.6425628662109 112.699821472168 151.5608978271484 C 119.7597808837891 157.5349884033203 136.0899810791016 168.2048645019531 143.9378662109375 173.3325347900391 C 146.0392303466797 174.7055206298828 147.4274444580078 175.6126098632812 147.7286987304688 175.8384399414062 C 148.9799041748047 176.8394927978516 157.1511535644531 182.2799835205078 163.2183990478516 182.2807312011719 C 163.8833160400391 182.2807312011719 164.5055236816406 182.2134399414062 165.0689849853516 182.0807800292969 C 166.4139862060547 181.7644805908203 167.5973968505859 181.0753631591797 168.5863647460938 180.0326538085938 C 169.3774871826172 179.198486328125 170.0466156005859 178.137451171875 170.5751953125 176.8789367675781 C 171.4747772216797 174.7369842529297 171.6570739746094 172.7371520996094 171.6588134765625 172.7171936035156 L 180.3294372558594 118.2662811279297 C 181.0993194580078 113.1657791137695 181.8557739257812 108.2595291137695 182.5872802734375 103.5148162841797 C 184.4801483154297 91.23794555664062 185.9749450683594 81.54269409179688 186.2253265380859 78.03453063964844 C 186.4703674316406 75.25711059570312 185.9784393310547 73.1759033203125 184.7631530761719 71.84869384765625 C 183.7055206298828 70.69357299804688 182.1109008789062 70.10790252685547 180.0236968994141 70.10790252685547 C 177.3603210449219 70.10790252685547 174.8055267333984 71.08831787109375 174.7799835205078 71.09823608398438 C 174.50927734375 71.20927429199219 147.6162414550781 82.24590301513672 139.7511138916016 85.66469573974609 L 58.94190216064453 118.9592742919922 C 56.07219314575195 120.0793228149414 53.91294479370117 121.2705307006836 52.52423477172852 122.4998626708984 C 51.37252807617188 123.519401550293 50.73823547363281 124.5745239257812 50.63894271850586 125.635986328125 C 50.41444396972656 128.0366058349609 53.0196533203125 129.6942291259766 53.04602813720703 129.710693359375 C 53.16690444946289 129.7521514892578 65.27348327636719 133.8996887207031 75.58919525146484 136.9944000244141 C 78.470947265625 137.8588256835938 81.25135803222656 138.2971038818359 83.85327911376953 138.2971038818359 C 88.84877777099609 138.2971038818359 91.51711273193359 136.6643981933594 91.54348754882812 136.6479034423828 L 140.4450225830078 103.699821472168 C 145.9478607177734 99.95794677734375 149.7362365722656 98.06065368652344 151.7048950195312 98.06065368652344 Z" stroke="none"/></g></svg>